<svg width="55" height="63" viewBox="0 0 55 63" fill="none" xmlns="http://www.w3.org/2000/svg">
<rect x="2.46484" y="2.48608" width="51.0536" height="59.5781" rx="18.5" fill="black" stroke="black"/>
<rect x="0.5" y="0.5" width="51.0536" height="59.5781" rx="18.5" fill="white" stroke="black"/>
<path d="M27.9922 0.496582L0.492188 27.8064M45.6966 5.462L1.99127 49.6542M38.3047 0.993124L0.492188 39.2268M50.6157 12.9507L7.43874 55.633M53.0368 22.5167L15.3073 59.8181M53.0368 34.4742L26.2022 61.0139" stroke="black"/>
<rect x="18.6602" y="7.94458" width="15.7143" height="44.6888" rx="5" fill="white"/>
<path d="M23.5703 21.8479H29.4632V46.7078C29.4632 48.3351 28.144 49.6542 26.5167 49.6542V49.6542C24.8895 49.6542 23.5703 48.3351 23.5703 46.7078V21.8479Z" fill="black"/>
<path d="M23.5703 15.8566C23.5703 14.2293 24.8895 12.9102 26.5167 12.9102V12.9102C28.144 12.9102 29.4632 14.2293 29.4632 15.8566V15.9222C29.4632 17.5495 28.144 18.8687 26.5167 18.8687V18.8687C24.8895 18.8687 23.5703 17.5495 23.5703 15.9222V15.8566Z" fill="black"/>
</svg>
