<svg width="393" height="146" viewBox="0 0 393 146" fill="none" xmlns="http://www.w3.org/2000/svg">
<path fill-rule="evenodd" clip-rule="evenodd" d="M0 11.0114C0 4.92981 5.64301 0 12.6051 0H365.336C372.298 0 377.941 4.92981 377.941 11.0114V46.9432C377.941 53.0247 372.298 57.9545 365.336 57.9545H356.045C345.803 57.9545 337.5 66.2576 337.5 76.5C337.5 86.7424 345.803 95.0454 356.045 95.0454H364.943C371.906 95.0454 377.549 99.9753 377.549 106.057V134.489C377.549 140.57 371.906 145.5 364.943 145.5H223.5C216.538 145.5 210.895 140.57 210.895 134.489V106.057C210.895 99.9753 216.538 95.0454 223.5 95.0454H301.904C309.105 95.0454 314.943 89.2073 314.943 82.0057C314.943 74.804 309.105 68.9659 301.904 68.9659H12.6051C5.64301 68.9659 0 64.0361 0 57.9545V11.0114Z" fill="black"/>
<path d="M34.3152 21.64C34.4432 22.152 34.5072 22.792 34.5072 23.56C34.5072 24.296 34.4432 24.936 34.3152 25.48C34.4432 25.992 34.5072 26.632 34.5072 27.4C34.5072 28.136 34.4432 28.776 34.3152 29.32C34.4432 29.832 34.5072 30.472 34.5072 31.24C34.5072 31.976 34.4432 32.616 34.3152 33.16H32.3952C32.5232 33.672 32.5872 34.312 32.5872 35.08C32.5872 35.816 32.5232 36.456 32.3952 37H22.7952C22.6672 36.456 22.6032 35.816 22.6032 35.08C22.6032 34.312 22.6672 33.672 22.7952 33.16H20.8752C20.7472 32.616 20.6832 31.976 20.6832 31.24C20.6832 30.472 20.7472 29.832 20.8752 29.32H18.9552C18.8272 28.776 18.7632 28.136 18.7632 27.4C18.7632 26.632 18.8272 25.992 18.9552 25.48C18.8272 24.936 18.7632 24.296 18.7632 23.56C18.7632 22.792 18.8272 22.152 18.9552 21.64C18.8272 21.096 18.7632 20.456 18.7632 19.72C18.7632 18.952 18.8272 18.312 18.9552 17.8H20.8752C20.7472 17.256 20.6832 16.616 20.6832 15.88C20.6832 15.112 20.7472 14.472 20.8752 13.96H22.7952C22.6672 13.416 22.6032 12.776 22.6032 12.04C22.6032 11.272 22.6672 10.632 22.7952 10.12H32.3952C32.5232 10.632 32.5872 11.272 32.5872 12.04C32.5872 12.776 32.5232 13.416 32.3952 13.96H34.3152C34.4432 14.472 34.5072 15.112 34.5072 15.88C34.5072 16.616 34.4432 17.256 34.3152 17.8H30.4752C30.3472 17.256 30.2832 16.616 30.2832 15.88C30.2832 15.112 30.3472 14.472 30.4752 13.96H24.7152C24.8432 14.472 24.9072 15.112 24.9072 15.88C24.9072 16.616 24.8432 17.256 24.7152 17.8H22.7952C22.9232 18.312 22.9872 18.952 22.9872 19.72C22.9872 20.456 22.9232 21.096 22.7952 21.64C22.9232 22.152 22.9872 22.792 22.9872 23.56C22.9872 24.296 22.9232 24.936 22.7952 25.48C22.9232 25.992 22.9872 26.632 22.9872 27.4C22.9872 28.136 22.9232 28.776 22.7952 29.32H24.7152C24.8432 29.832 24.9072 30.472 24.9072 31.24C24.9072 31.976 24.8432 32.616 24.7152 33.16H30.4752C30.3472 32.616 30.2832 31.976 30.2832 31.24C30.2832 30.472 30.3472 29.832 30.4752 29.32C30.3472 28.776 30.2832 28.136 30.2832 27.4C30.2832 26.632 30.3472 25.992 30.4752 25.48H27.5952C27.4672 24.936 27.4032 24.296 27.4032 23.56C27.4032 22.792 27.4672 22.152 27.5952 21.64H34.3152ZM43.9339 25.48C44.0619 25.992 44.1259 26.632 44.1259 27.4C44.1259 28.136 44.0619 28.776 43.9339 29.32C44.0619 29.832 44.1259 30.472 44.1259 31.24C44.1259 31.976 44.0619 32.616 43.9339 33.16H51.6139C51.7419 33.672 51.8059 34.312 51.8059 35.08C51.8059 35.816 51.7419 36.456 51.6139 37H40.0939C39.9659 36.456 39.9019 35.816 39.9019 35.08C39.9019 34.312 39.9659 33.672 40.0939 33.16C39.9659 32.616 39.9019 31.976 39.9019 31.24C39.9019 30.472 39.9659 29.832 40.0939 29.32C39.9659 28.776 39.9019 28.136 39.9019 27.4C39.9019 26.632 39.9659 25.992 40.0939 25.48C39.9659 24.936 39.9019 24.296 39.9019 23.56C39.9019 22.792 39.9659 22.152 40.0939 21.64C39.9659 21.096 39.9019 20.456 39.9019 19.72C39.9019 18.952 39.9659 18.312 40.0939 17.8C39.9659 17.256 39.9019 16.616 39.9019 15.88C39.9019 15.112 39.9659 14.472 40.0939 13.96C39.9659 13.416 39.9019 12.776 39.9019 12.04C39.9019 11.272 39.9659 10.632 40.0939 10.12H51.6139C51.7419 10.632 51.8059 11.272 51.8059 12.04C51.8059 12.776 51.7419 13.416 51.6139 13.96H43.9339C44.0619 14.472 44.1259 15.112 44.1259 15.88C44.1259 16.616 44.0619 17.256 43.9339 17.8C44.0619 18.312 44.1259 18.952 44.1259 19.72C44.1259 20.456 44.0619 21.096 43.9339 21.64H51.6139C51.7419 22.152 51.8059 22.792 51.8059 23.56C51.8059 24.296 51.7419 24.936 51.6139 25.48H43.9339ZM72.7527 13.96C72.8807 14.472 72.9447 15.112 72.9447 15.88C72.9447 16.616 72.8807 17.256 72.7527 17.8C72.8807 18.312 72.9447 18.952 72.9447 19.72C72.9447 20.456 72.8807 21.096 72.7527 21.64C72.8807 22.152 72.9447 22.792 72.9447 23.56C72.9447 24.296 72.8807 24.936 72.7527 25.48C72.8807 25.992 72.9447 26.632 72.9447 27.4C72.9447 28.136 72.8807 28.776 72.7527 29.32C72.8807 29.832 72.9447 30.472 72.9447 31.24C72.9447 31.976 72.8807 32.616 72.7527 33.16C72.8807 33.672 72.9447 34.312 72.9447 35.08C72.9447 35.816 72.8807 36.456 72.7527 37H68.9127C68.7847 36.456 68.7207 35.816 68.7207 35.08C68.7207 34.312 68.7847 33.672 68.9127 33.16H66.5127C66.3847 32.616 66.3207 31.976 66.3207 31.24C66.3207 30.472 66.3847 29.832 66.5127 29.32H65.0727C64.9447 28.776 64.8807 28.136 64.8807 27.4C64.8807 26.632 64.9447 25.992 65.0727 25.48H63.1527C63.0247 24.936 62.9607 24.296 62.9607 23.56C62.9607 22.792 63.0247 22.152 63.1527 21.64H61.2327C61.3607 22.152 61.4247 22.792 61.4247 23.56C61.4247 24.296 61.3607 24.936 61.2327 25.48C61.3607 25.992 61.4247 26.632 61.4247 27.4C61.4247 28.136 61.3607 28.776 61.2327 29.32C61.3607 29.832 61.4247 30.472 61.4247 31.24C61.4247 31.976 61.3607 32.616 61.2327 33.16C61.3607 33.672 61.4247 34.312 61.4247 35.08C61.4247 35.816 61.3607 36.456 61.2327 37H57.3927C57.2647 36.456 57.2007 35.816 57.2007 35.08C57.2007 34.312 57.2647 33.672 57.3927 33.16C57.2647 32.616 57.2007 31.976 57.2007 31.24C57.2007 30.472 57.2647 29.832 57.3927 29.32C57.2647 28.776 57.2007 28.136 57.2007 27.4C57.2007 26.632 57.2647 25.992 57.3927 25.48C57.2647 24.936 57.2007 24.296 57.2007 23.56C57.2007 22.792 57.2647 22.152 57.3927 21.64C57.2647 21.096 57.2007 20.456 57.2007 19.72C57.2007 18.952 57.2647 18.312 57.3927 17.8C57.2647 17.256 57.2007 16.616 57.2007 15.88C57.2007 15.112 57.2647 14.472 57.3927 13.96C57.2647 13.416 57.2007 12.776 57.2007 12.04C57.2007 11.272 57.2647 10.632 57.3927 10.12H62.1927C62.3207 10.632 62.3847 11.272 62.3847 12.04C62.3847 12.776 62.3207 13.416 62.1927 13.96H63.6327C63.7607 14.472 63.8247 15.112 63.8247 15.88C63.8247 16.616 63.7607 17.256 63.6327 17.8H65.0727C65.2007 18.312 65.2647 18.952 65.2647 19.72C65.2647 20.456 65.2007 21.096 65.0727 21.64H66.9927C67.1207 22.152 67.1847 22.792 67.1847 23.56C67.1847 24.296 67.1207 24.936 66.9927 25.48H68.9127C68.7847 24.936 68.7207 24.296 68.7207 23.56C68.7207 22.792 68.7847 22.152 68.9127 21.64C68.7847 21.096 68.7207 20.456 68.7207 19.72C68.7207 18.952 68.7847 18.312 68.9127 17.8C68.7847 17.256 68.7207 16.616 68.7207 15.88C68.7207 15.112 68.7847 14.472 68.9127 13.96C68.7847 13.416 68.7207 12.776 68.7207 12.04C68.7207 11.272 68.7847 10.632 68.9127 10.12H72.7527C72.8807 10.632 72.9447 11.272 72.9447 12.04C72.9447 12.776 72.8807 13.416 72.7527 13.96ZM82.3714 25.48C82.4994 25.992 82.5634 26.632 82.5634 27.4C82.5634 28.136 82.4994 28.776 82.3714 29.32C82.4994 29.832 82.5634 30.472 82.5634 31.24C82.5634 31.976 82.4994 32.616 82.3714 33.16H90.0514C90.1794 33.672 90.2434 34.312 90.2434 35.08C90.2434 35.816 90.1794 36.456 90.0514 37H78.5314C78.4034 36.456 78.3394 35.816 78.3394 35.08C78.3394 34.312 78.4034 33.672 78.5314 33.16C78.4034 32.616 78.3394 31.976 78.3394 31.24C78.3394 30.472 78.4034 29.832 78.5314 29.32C78.4034 28.776 78.3394 28.136 78.3394 27.4C78.3394 26.632 78.4034 25.992 78.5314 25.48C78.4034 24.936 78.3394 24.296 78.3394 23.56C78.3394 22.792 78.4034 22.152 78.5314 21.64C78.4034 21.096 78.3394 20.456 78.3394 19.72C78.3394 18.952 78.4034 18.312 78.5314 17.8C78.4034 17.256 78.3394 16.616 78.3394 15.88C78.3394 15.112 78.4034 14.472 78.5314 13.96C78.4034 13.416 78.3394 12.776 78.3394 12.04C78.3394 11.272 78.4034 10.632 78.5314 10.12H90.0514C90.1794 10.632 90.2434 11.272 90.2434 12.04C90.2434 12.776 90.1794 13.416 90.0514 13.96H82.3714C82.4994 14.472 82.5634 15.112 82.5634 15.88C82.5634 16.616 82.4994 17.256 82.3714 17.8C82.4994 18.312 82.5634 18.952 82.5634 19.72C82.5634 20.456 82.4994 21.096 82.3714 21.64H90.0514C90.1794 22.152 90.2434 22.792 90.2434 23.56C90.2434 24.296 90.1794 24.936 90.0514 25.48H82.3714ZM111.19 33.16C111.318 33.672 111.382 34.312 111.382 35.08C111.382 35.816 111.318 36.456 111.19 37H107.35C107.222 36.456 107.158 35.816 107.158 35.08C107.158 34.312 107.222 33.672 107.35 33.16H105.91C105.782 32.616 105.718 31.976 105.718 31.24C105.718 30.472 105.782 29.832 105.91 29.32H104.47C104.342 28.776 104.278 28.136 104.278 27.4C104.278 26.632 104.342 25.992 104.47 25.48H99.6702C99.7982 25.992 99.8622 26.632 99.8622 27.4C99.8622 28.136 99.7982 28.776 99.6702 29.32C99.7982 29.832 99.8622 30.472 99.8622 31.24C99.8622 31.976 99.7982 32.616 99.6702 33.16C99.7982 33.672 99.8622 34.312 99.8622 35.08C99.8622 35.816 99.7982 36.456 99.6702 37H95.8302C95.7022 36.456 95.6382 35.816 95.6382 35.08C95.6382 34.312 95.7022 33.672 95.8302 33.16C95.7022 32.616 95.6382 31.976 95.6382 31.24C95.6382 30.472 95.7022 29.832 95.8302 29.32C95.7022 28.776 95.6382 28.136 95.6382 27.4C95.6382 26.632 95.7022 25.992 95.8302 25.48C95.7022 24.936 95.6382 24.296 95.6382 23.56C95.6382 22.792 95.7022 22.152 95.8302 21.64C95.7022 21.096 95.6382 20.456 95.6382 19.72C95.6382 18.952 95.7022 18.312 95.8302 17.8C95.7022 17.256 95.6382 16.616 95.6382 15.88C95.6382 15.112 95.7022 14.472 95.8302 13.96C95.7022 13.416 95.6382 12.776 95.6382 12.04C95.6382 11.272 95.7022 10.632 95.8302 10.12H109.27C109.398 10.632 109.462 11.272 109.462 12.04C109.462 12.776 109.398 13.416 109.27 13.96H111.19C111.318 14.472 111.382 15.112 111.382 15.88C111.382 16.616 111.318 17.256 111.19 17.8H110.23C110.358 18.312 110.422 18.952 110.422 19.72C110.422 20.456 110.358 21.096 110.23 21.64H107.35C107.478 22.152 107.542 22.792 107.542 23.56C107.542 24.296 107.478 24.936 107.35 25.48H108.31C108.438 25.992 108.502 26.632 108.502 27.4C108.502 28.136 108.438 28.776 108.31 29.32H109.75C109.878 29.832 109.942 30.472 109.942 31.24C109.942 31.976 109.878 32.616 109.75 33.16H111.19ZM106.39 21.64C106.262 21.096 106.198 20.456 106.198 19.72C106.198 18.952 106.262 18.312 106.39 17.8C106.262 17.256 106.198 16.616 106.198 15.88C106.198 15.112 106.262 14.472 106.39 13.96H99.6702C99.7982 14.472 99.8622 15.112 99.8622 15.88C99.8622 16.616 99.7982 17.256 99.6702 17.8C99.7982 18.312 99.8622 18.952 99.8622 19.72C99.8622 20.456 99.7982 21.096 99.6702 21.64H106.39ZM130.601 31.24C130.601 31.976 130.537 32.616 130.409 33.16C130.537 33.672 130.601 34.312 130.601 35.08C130.601 35.816 130.537 36.456 130.409 37H126.569C126.441 36.456 126.377 35.816 126.377 35.08C126.377 34.312 126.441 33.672 126.569 33.16C126.441 32.616 126.377 31.976 126.377 31.24C126.377 30.472 126.441 29.832 126.569 29.32H118.889C119.017 29.832 119.081 30.472 119.081 31.24C119.081 31.976 119.017 32.616 118.889 33.16C119.017 33.672 119.081 34.312 119.081 35.08C119.081 35.816 119.017 36.456 118.889 37H115.049C114.921 36.456 114.857 35.816 114.857 35.08C114.857 34.312 114.921 33.672 115.049 33.16C114.921 32.616 114.857 31.976 114.857 31.24C114.857 30.472 114.921 29.832 115.049 29.32H116.489C116.361 28.776 116.297 28.136 116.297 27.4C116.297 26.632 116.361 25.992 116.489 25.48C116.361 24.936 116.297 24.296 116.297 23.56C116.297 22.792 116.361 22.152 116.489 21.64H117.449C117.321 21.096 117.257 20.456 117.257 19.72C117.257 18.952 117.321 18.312 117.449 17.8H118.889C118.761 17.256 118.697 16.616 118.697 15.88C118.697 15.112 118.761 14.472 118.889 13.96H119.849C119.721 13.416 119.657 12.776 119.657 12.04C119.657 11.272 119.721 10.632 119.849 10.12H125.609C125.737 10.632 125.801 11.272 125.801 12.04C125.801 12.776 125.737 13.416 125.609 13.96H126.569C126.697 14.472 126.761 15.112 126.761 15.88C126.761 16.616 126.697 17.256 126.569 17.8H128.009C128.137 18.312 128.201 18.952 128.201 19.72C128.201 20.456 128.137 21.096 128.009 21.64H128.969C129.097 22.152 129.161 22.792 129.161 23.56C129.161 24.296 129.097 24.936 128.969 25.48C129.097 25.992 129.161 26.632 129.161 27.4C129.161 28.136 129.097 28.776 128.969 29.32H130.409C130.537 29.832 130.601 30.472 130.601 31.24ZM125.129 25.48C125.001 24.936 124.937 24.296 124.937 23.56C124.937 22.792 125.001 22.152 125.129 21.64H124.169C124.041 21.096 123.977 20.456 123.977 19.72C123.977 18.952 124.041 18.312 124.169 17.8H121.289C121.417 18.312 121.481 18.952 121.481 19.72C121.481 20.456 121.417 21.096 121.289 21.64H120.329C120.457 22.152 120.521 22.792 120.521 23.56C120.521 24.296 120.457 24.936 120.329 25.48H125.129ZM149.82 12.04C149.82 12.776 149.756 13.416 149.628 13.96H143.868C143.996 14.472 144.06 15.112 144.06 15.88C144.06 16.616 143.996 17.256 143.868 17.8C143.996 18.312 144.06 18.952 144.06 19.72C144.06 20.456 143.996 21.096 143.868 21.64C143.996 22.152 144.06 22.792 144.06 23.56C144.06 24.296 143.996 24.936 143.868 25.48C143.996 25.992 144.06 26.632 144.06 27.4C144.06 28.136 143.996 28.776 143.868 29.32C143.996 29.832 144.06 30.472 144.06 31.24C144.06 31.976 143.996 32.616 143.868 33.16C143.996 33.672 144.06 34.312 144.06 35.08C144.06 35.816 143.996 36.456 143.868 37H140.028C139.9 36.456 139.836 35.816 139.836 35.08C139.836 34.312 139.9 33.672 140.028 33.16C139.9 32.616 139.836 31.976 139.836 31.24C139.836 30.472 139.9 29.832 140.028 29.32C139.9 28.776 139.836 28.136 139.836 27.4C139.836 26.632 139.9 25.992 140.028 25.48C139.9 24.936 139.836 24.296 139.836 23.56C139.836 22.792 139.9 22.152 140.028 21.64C139.9 21.096 139.836 20.456 139.836 19.72C139.836 18.952 139.9 18.312 140.028 17.8C139.9 17.256 139.836 16.616 139.836 15.88C139.836 15.112 139.9 14.472 140.028 13.96H134.268C134.14 13.416 134.076 12.776 134.076 12.04C134.076 11.272 134.14 10.632 134.268 10.12H149.628C149.756 10.632 149.82 11.272 149.82 12.04ZM165.966 33.16C166.094 33.672 166.158 34.312 166.158 35.08C166.158 35.816 166.094 36.456 165.966 37H156.366C156.238 36.456 156.174 35.816 156.174 35.08C156.174 34.312 156.238 33.672 156.366 33.16H159.246C159.118 32.616 159.054 31.976 159.054 31.24C159.054 30.472 159.118 29.832 159.246 29.32C159.118 28.776 159.054 28.136 159.054 27.4C159.054 26.632 159.118 25.992 159.246 25.48C159.118 24.936 159.054 24.296 159.054 23.56C159.054 22.792 159.118 22.152 159.246 21.64C159.118 21.096 159.054 20.456 159.054 19.72C159.054 18.952 159.118 18.312 159.246 17.8C159.118 17.256 159.054 16.616 159.054 15.88C159.054 15.112 159.118 14.472 159.246 13.96H156.366C156.238 13.416 156.174 12.776 156.174 12.04C156.174 11.272 156.238 10.632 156.366 10.12H165.966C166.094 10.632 166.158 11.272 166.158 12.04C166.158 12.776 166.094 13.416 165.966 13.96H163.086C163.214 14.472 163.278 15.112 163.278 15.88C163.278 16.616 163.214 17.256 163.086 17.8C163.214 18.312 163.278 18.952 163.278 19.72C163.278 20.456 163.214 21.096 163.086 21.64C163.214 22.152 163.278 22.792 163.278 23.56C163.278 24.296 163.214 24.936 163.086 25.48C163.214 25.992 163.278 26.632 163.278 27.4C163.278 28.136 163.214 28.776 163.086 29.32C163.214 29.832 163.278 30.472 163.278 31.24C163.278 31.976 163.214 32.616 163.086 33.16H165.966ZM188.065 13.96C188.193 14.472 188.257 15.112 188.257 15.88C188.257 16.616 188.193 17.256 188.065 17.8C188.193 18.312 188.257 18.952 188.257 19.72C188.257 20.456 188.193 21.096 188.065 21.64H186.625C186.753 22.152 186.817 22.792 186.817 23.56C186.817 24.296 186.753 24.936 186.625 25.48H185.185C185.313 25.992 185.377 26.632 185.377 27.4C185.377 28.136 185.313 28.776 185.185 29.32H184.225C184.353 29.832 184.417 30.472 184.417 31.24C184.417 31.976 184.353 32.616 184.225 33.16H182.305C182.433 33.672 182.497 34.312 182.497 35.08C182.497 35.816 182.433 36.456 182.305 37H178.465C178.337 36.456 178.273 35.816 178.273 35.08C178.273 34.312 178.337 33.672 178.465 33.16H176.545C176.417 32.616 176.353 31.976 176.353 31.24C176.353 30.472 176.417 29.832 176.545 29.32H175.585C175.457 28.776 175.393 28.136 175.393 27.4C175.393 26.632 175.457 25.992 175.585 25.48H174.145C174.017 24.936 173.953 24.296 173.953 23.56C173.953 22.792 174.017 22.152 174.145 21.64H172.705C172.577 21.096 172.513 20.456 172.513 19.72C172.513 18.952 172.577 18.312 172.705 17.8C172.577 17.256 172.513 16.616 172.513 15.88C172.513 15.112 172.577 14.472 172.705 13.96C172.577 13.416 172.513 12.776 172.513 12.04C172.513 11.272 172.577 10.632 172.705 10.12H176.545C176.673 10.632 176.737 11.272 176.737 12.04C176.737 12.776 176.673 13.416 176.545 13.96C176.673 14.472 176.737 15.112 176.737 15.88C176.737 16.616 176.673 17.256 176.545 17.8C176.673 18.312 176.737 18.952 176.737 19.72C176.737 20.456 176.673 21.096 176.545 21.64H177.985C178.113 22.152 178.177 22.792 178.177 23.56C178.177 24.296 178.113 24.936 177.985 25.48H179.425C179.553 25.992 179.617 26.632 179.617 27.4C179.617 28.136 179.553 28.776 179.425 29.32H181.345C181.217 28.776 181.153 28.136 181.153 27.4C181.153 26.632 181.217 25.992 181.345 25.48H182.785C182.657 24.936 182.593 24.296 182.593 23.56C182.593 22.792 182.657 22.152 182.785 21.64H184.225C184.097 21.096 184.033 20.456 184.033 19.72C184.033 18.952 184.097 18.312 184.225 17.8C184.097 17.256 184.033 16.616 184.033 15.88C184.033 15.112 184.097 14.472 184.225 13.96C184.097 13.416 184.033 12.776 184.033 12.04C184.033 11.272 184.097 10.632 184.225 10.12H188.065C188.193 10.632 188.257 11.272 188.257 12.04C188.257 12.776 188.193 13.416 188.065 13.96ZM197.684 25.48C197.812 25.992 197.876 26.632 197.876 27.4C197.876 28.136 197.812 28.776 197.684 29.32C197.812 29.832 197.876 30.472 197.876 31.24C197.876 31.976 197.812 32.616 197.684 33.16H205.364C205.492 33.672 205.556 34.312 205.556 35.08C205.556 35.816 205.492 36.456 205.364 37H193.844C193.716 36.456 193.652 35.816 193.652 35.08C193.652 34.312 193.716 33.672 193.844 33.16C193.716 32.616 193.652 31.976 193.652 31.24C193.652 30.472 193.716 29.832 193.844 29.32C193.716 28.776 193.652 28.136 193.652 27.4C193.652 26.632 193.716 25.992 193.844 25.48C193.716 24.936 193.652 24.296 193.652 23.56C193.652 22.792 193.716 22.152 193.844 21.64C193.716 21.096 193.652 20.456 193.652 19.72C193.652 18.952 193.716 18.312 193.844 17.8C193.716 17.256 193.652 16.616 193.652 15.88C193.652 15.112 193.716 14.472 193.844 13.96C193.716 13.416 193.652 12.776 193.652 12.04C193.652 11.272 193.716 10.632 193.844 10.12H205.364C205.492 10.632 205.556 11.272 205.556 12.04C205.556 12.776 205.492 13.416 205.364 13.96H197.684C197.812 14.472 197.876 15.112 197.876 15.88C197.876 16.616 197.812 17.256 197.684 17.8C197.812 18.312 197.876 18.952 197.876 19.72C197.876 20.456 197.812 21.096 197.684 21.64H205.364C205.492 22.152 205.556 22.792 205.556 23.56C205.556 24.296 205.492 24.936 205.364 25.48H197.684ZM245.721 25.48C245.849 25.992 245.913 26.632 245.913 27.4C245.913 28.136 245.849 28.776 245.721 29.32C245.849 29.832 245.913 30.472 245.913 31.24C245.913 31.976 245.849 32.616 245.721 33.16H243.801C243.929 33.672 243.993 34.312 243.993 35.08C243.993 35.816 243.929 36.456 243.801 37H232.281C232.153 36.456 232.089 35.816 232.089 35.08C232.089 34.312 232.153 33.672 232.281 33.16H230.361C230.233 32.616 230.169 31.976 230.169 31.24C230.169 30.472 230.233 29.832 230.361 29.32H234.201C234.329 29.832 234.393 30.472 234.393 31.24C234.393 31.976 234.329 32.616 234.201 33.16H241.881C241.753 32.616 241.689 31.976 241.689 31.24C241.689 30.472 241.753 29.832 241.881 29.32C241.753 28.776 241.689 28.136 241.689 27.4C241.689 26.632 241.753 25.992 241.881 25.48H232.281C232.153 24.936 232.089 24.296 232.089 23.56C232.089 22.792 232.153 22.152 232.281 21.64H230.361C230.233 21.096 230.169 20.456 230.169 19.72C230.169 18.952 230.233 18.312 230.361 17.8C230.233 17.256 230.169 16.616 230.169 15.88C230.169 15.112 230.233 14.472 230.361 13.96H232.281C232.153 13.416 232.089 12.776 232.089 12.04C232.089 11.272 232.153 10.632 232.281 10.12H243.801C243.929 10.632 243.993 11.272 243.993 12.04C243.993 12.776 243.929 13.416 243.801 13.96H245.721C245.849 14.472 245.913 15.112 245.913 15.88C245.913 16.616 245.849 17.256 245.721 17.8H241.881C241.753 17.256 241.689 16.616 241.689 15.88C241.689 15.112 241.753 14.472 241.881 13.96H234.201C234.329 14.472 234.393 15.112 234.393 15.88C234.393 16.616 234.329 17.256 234.201 17.8C234.329 18.312 234.393 18.952 234.393 19.72C234.393 20.456 234.329 21.096 234.201 21.64H243.801C243.929 22.152 243.993 22.792 243.993 23.56C243.993 24.296 243.929 24.936 243.801 25.48H245.721ZM265.132 12.04C265.132 12.776 265.068 13.416 264.94 13.96C265.068 14.472 265.132 15.112 265.132 15.88C265.132 16.616 265.068 17.256 264.94 17.8H263.02C263.148 18.312 263.212 18.952 263.212 19.72C263.212 20.456 263.148 21.096 263.02 21.64H261.1C261.228 22.152 261.292 22.792 261.292 23.56C261.292 24.296 261.228 24.936 261.1 25.48H259.18C259.308 25.992 259.372 26.632 259.372 27.4C259.372 28.136 259.308 28.776 259.18 29.32C259.308 29.832 259.372 30.472 259.372 31.24C259.372 31.976 259.308 32.616 259.18 33.16C259.308 33.672 259.372 34.312 259.372 35.08C259.372 35.816 259.308 36.456 259.18 37H255.34C255.212 36.456 255.148 35.816 255.148 35.08C255.148 34.312 255.212 33.672 255.34 33.16C255.212 32.616 255.148 31.976 255.148 31.24C255.148 30.472 255.212 29.832 255.34 29.32C255.212 28.776 255.148 28.136 255.148 27.4C255.148 26.632 255.212 25.992 255.34 25.48H253.42C253.292 24.936 253.228 24.296 253.228 23.56C253.228 22.792 253.292 22.152 253.42 21.64H251.5C251.372 21.096 251.308 20.456 251.308 19.72C251.308 18.952 251.372 18.312 251.5 17.8H249.58C249.452 17.256 249.388 16.616 249.388 15.88C249.388 15.112 249.452 14.472 249.58 13.96C249.452 13.416 249.388 12.776 249.388 12.04C249.388 11.272 249.452 10.632 249.58 10.12H253.42C253.548 10.632 253.612 11.272 253.612 12.04C253.612 12.776 253.548 13.416 253.42 13.96C253.548 14.472 253.612 15.112 253.612 15.88C253.612 16.616 253.548 17.256 253.42 17.8H255.34C255.468 18.312 255.532 18.952 255.532 19.72C255.532 20.456 255.468 21.096 255.34 21.64H259.18C259.052 21.096 258.988 20.456 258.988 19.72C258.988 18.952 259.052 18.312 259.18 17.8H261.1C260.972 17.256 260.908 16.616 260.908 15.88C260.908 15.112 260.972 14.472 261.1 13.96C260.972 13.416 260.908 12.776 260.908 12.04C260.908 11.272 260.972 10.632 261.1 10.12H264.94C265.068 10.632 265.132 11.272 265.132 12.04ZM284.159 25.48C284.287 25.992 284.351 26.632 284.351 27.4C284.351 28.136 284.287 28.776 284.159 29.32C284.287 29.832 284.351 30.472 284.351 31.24C284.351 31.976 284.287 32.616 284.159 33.16H282.239C282.367 33.672 282.431 34.312 282.431 35.08C282.431 35.816 282.367 36.456 282.239 37H270.719C270.591 36.456 270.527 35.816 270.527 35.08C270.527 34.312 270.591 33.672 270.719 33.16H268.799C268.671 32.616 268.607 31.976 268.607 31.24C268.607 30.472 268.671 29.832 268.799 29.32H272.639C272.767 29.832 272.831 30.472 272.831 31.24C272.831 31.976 272.767 32.616 272.639 33.16H280.319C280.191 32.616 280.127 31.976 280.127 31.24C280.127 30.472 280.191 29.832 280.319 29.32C280.191 28.776 280.127 28.136 280.127 27.4C280.127 26.632 280.191 25.992 280.319 25.48H270.719C270.591 24.936 270.527 24.296 270.527 23.56C270.527 22.792 270.591 22.152 270.719 21.64H268.799C268.671 21.096 268.607 20.456 268.607 19.72C268.607 18.952 268.671 18.312 268.799 17.8C268.671 17.256 268.607 16.616 268.607 15.88C268.607 15.112 268.671 14.472 268.799 13.96H270.719C270.591 13.416 270.527 12.776 270.527 12.04C270.527 11.272 270.591 10.632 270.719 10.12H282.239C282.367 10.632 282.431 11.272 282.431 12.04C282.431 12.776 282.367 13.416 282.239 13.96H284.159C284.287 14.472 284.351 15.112 284.351 15.88C284.351 16.616 284.287 17.256 284.159 17.8H280.319C280.191 17.256 280.127 16.616 280.127 15.88C280.127 15.112 280.191 14.472 280.319 13.96H272.639C272.767 14.472 272.831 15.112 272.831 15.88C272.831 16.616 272.767 17.256 272.639 17.8C272.767 18.312 272.831 18.952 272.831 19.72C272.831 20.456 272.767 21.096 272.639 21.64H282.239C282.367 22.152 282.431 22.792 282.431 23.56C282.431 24.296 282.367 24.936 282.239 25.48H284.159ZM303.57 12.04C303.57 12.776 303.506 13.416 303.378 13.96H297.618C297.746 14.472 297.81 15.112 297.81 15.88C297.81 16.616 297.746 17.256 297.618 17.8C297.746 18.312 297.81 18.952 297.81 19.72C297.81 20.456 297.746 21.096 297.618 21.64C297.746 22.152 297.81 22.792 297.81 23.56C297.81 24.296 297.746 24.936 297.618 25.48C297.746 25.992 297.81 26.632 297.81 27.4C297.81 28.136 297.746 28.776 297.618 29.32C297.746 29.832 297.81 30.472 297.81 31.24C297.81 31.976 297.746 32.616 297.618 33.16C297.746 33.672 297.81 34.312 297.81 35.08C297.81 35.816 297.746 36.456 297.618 37H293.778C293.65 36.456 293.586 35.816 293.586 35.08C293.586 34.312 293.65 33.672 293.778 33.16C293.65 32.616 293.586 31.976 293.586 31.24C293.586 30.472 293.65 29.832 293.778 29.32C293.65 28.776 293.586 28.136 293.586 27.4C293.586 26.632 293.65 25.992 293.778 25.48C293.65 24.936 293.586 24.296 293.586 23.56C293.586 22.792 293.65 22.152 293.778 21.64C293.65 21.096 293.586 20.456 293.586 19.72C293.586 18.952 293.65 18.312 293.778 17.8C293.65 17.256 293.586 16.616 293.586 15.88C293.586 15.112 293.65 14.472 293.778 13.96H288.018C287.89 13.416 287.826 12.776 287.826 12.04C287.826 11.272 287.89 10.632 288.018 10.12H303.378C303.506 10.632 303.57 11.272 303.57 12.04ZM312.996 25.48C313.124 25.992 313.188 26.632 313.188 27.4C313.188 28.136 313.124 28.776 312.996 29.32C313.124 29.832 313.188 30.472 313.188 31.24C313.188 31.976 313.124 32.616 312.996 33.16H320.676C320.804 33.672 320.868 34.312 320.868 35.08C320.868 35.816 320.804 36.456 320.676 37H309.156C309.028 36.456 308.964 35.816 308.964 35.08C308.964 34.312 309.028 33.672 309.156 33.16C309.028 32.616 308.964 31.976 308.964 31.24C308.964 30.472 309.028 29.832 309.156 29.32C309.028 28.776 308.964 28.136 308.964 27.4C308.964 26.632 309.028 25.992 309.156 25.48C309.028 24.936 308.964 24.296 308.964 23.56C308.964 22.792 309.028 22.152 309.156 21.64C309.028 21.096 308.964 20.456 308.964 19.72C308.964 18.952 309.028 18.312 309.156 17.8C309.028 17.256 308.964 16.616 308.964 15.88C308.964 15.112 309.028 14.472 309.156 13.96C309.028 13.416 308.964 12.776 308.964 12.04C308.964 11.272 309.028 10.632 309.156 10.12H320.676C320.804 10.632 320.868 11.272 320.868 12.04C320.868 12.776 320.804 13.416 320.676 13.96H312.996C313.124 14.472 313.188 15.112 313.188 15.88C313.188 16.616 313.124 17.256 312.996 17.8C313.124 18.312 313.188 18.952 313.188 19.72C313.188 20.456 313.124 21.096 312.996 21.64H320.676C320.804 22.152 320.868 22.792 320.868 23.56C320.868 24.296 320.804 24.936 320.676 25.48H312.996ZM341.815 13.96C341.943 14.472 342.007 15.112 342.007 15.88C342.007 16.616 341.943 17.256 341.815 17.8C341.943 18.312 342.007 18.952 342.007 19.72C342.007 20.456 341.943 21.096 341.815 21.64C341.943 22.152 342.007 22.792 342.007 23.56C342.007 24.296 341.943 24.936 341.815 25.48C341.943 25.992 342.007 26.632 342.007 27.4C342.007 28.136 341.943 28.776 341.815 29.32C341.943 29.832 342.007 30.472 342.007 31.24C342.007 31.976 341.943 32.616 341.815 33.16C341.943 33.672 342.007 34.312 342.007 35.08C342.007 35.816 341.943 36.456 341.815 37H337.975C337.847 36.456 337.783 35.816 337.783 35.08C337.783 34.312 337.847 33.672 337.975 33.16C337.847 32.616 337.783 31.976 337.783 31.24C337.783 30.472 337.847 29.832 337.975 29.32C337.847 28.776 337.783 28.136 337.783 27.4C337.783 26.632 337.847 25.992 337.975 25.48C337.847 24.936 337.783 24.296 337.783 23.56C337.783 22.792 337.847 22.152 337.975 21.64C337.847 21.096 337.783 20.456 337.783 19.72C337.783 18.952 337.847 18.312 337.975 17.8H336.535C336.663 18.312 336.727 18.952 336.727 19.72C336.727 20.456 336.663 21.096 336.535 21.64C336.663 22.152 336.727 22.792 336.727 23.56C336.727 24.296 336.663 24.936 336.535 25.48H335.575C335.703 25.992 335.767 26.632 335.767 27.4C335.767 28.136 335.703 28.776 335.575 29.32C335.703 29.832 335.767 30.472 335.767 31.24C335.767 31.976 335.703 32.616 335.575 33.16H332.695C332.567 32.616 332.503 31.976 332.503 31.24C332.503 30.472 332.567 29.832 332.695 29.32C332.567 28.776 332.503 28.136 332.503 27.4C332.503 26.632 332.567 25.992 332.695 25.48H331.735C331.607 24.936 331.543 24.296 331.543 23.56C331.543 22.792 331.607 22.152 331.735 21.64C331.607 21.096 331.543 20.456 331.543 19.72C331.543 18.952 331.607 18.312 331.735 17.8H330.295C330.423 18.312 330.487 18.952 330.487 19.72C330.487 20.456 330.423 21.096 330.295 21.64C330.423 22.152 330.487 22.792 330.487 23.56C330.487 24.296 330.423 24.936 330.295 25.48C330.423 25.992 330.487 26.632 330.487 27.4C330.487 28.136 330.423 28.776 330.295 29.32C330.423 29.832 330.487 30.472 330.487 31.24C330.487 31.976 330.423 32.616 330.295 33.16C330.423 33.672 330.487 34.312 330.487 35.08C330.487 35.816 330.423 36.456 330.295 37H326.455C326.327 36.456 326.263 35.816 326.263 35.08C326.263 34.312 326.327 33.672 326.455 33.16C326.327 32.616 326.263 31.976 326.263 31.24C326.263 30.472 326.327 29.832 326.455 29.32C326.327 28.776 326.263 28.136 326.263 27.4C326.263 26.632 326.327 25.992 326.455 25.48C326.327 24.936 326.263 24.296 326.263 23.56C326.263 22.792 326.327 22.152 326.455 21.64C326.327 21.096 326.263 20.456 326.263 19.72C326.263 18.952 326.327 18.312 326.455 17.8C326.327 17.256 326.263 16.616 326.263 15.88C326.263 15.112 326.327 14.472 326.455 13.96C326.327 13.416 326.263 12.776 326.263 12.04C326.263 11.272 326.327 10.632 326.455 10.12H331.255C331.383 10.632 331.447 11.272 331.447 12.04C331.447 12.776 331.383 13.416 331.255 13.96H332.695C332.823 14.472 332.887 15.112 332.887 15.88C332.887 16.616 332.823 17.256 332.695 17.8H333.415C333.543 18.312 333.607 18.952 333.607 19.72C333.607 20.456 333.543 21.096 333.415 21.64H334.855C334.727 21.096 334.663 20.456 334.663 19.72C334.663 18.952 334.727 18.312 334.855 17.8H335.575C335.447 17.256 335.383 16.616 335.383 15.88C335.383 15.112 335.447 14.472 335.575 13.96H337.015C336.887 13.416 336.823 12.776 336.823 12.04C336.823 11.272 336.887 10.632 337.015 10.12H341.815C341.943 10.632 342.007 11.272 342.007 12.04C342.007 12.776 341.943 13.416 341.815 13.96ZM361.034 25.48C361.162 25.992 361.226 26.632 361.226 27.4C361.226 28.136 361.162 28.776 361.034 29.32C361.162 29.832 361.226 30.472 361.226 31.24C361.226 31.976 361.162 32.616 361.034 33.16H359.114C359.242 33.672 359.306 34.312 359.306 35.08C359.306 35.816 359.242 36.456 359.114 37H347.594C347.466 36.456 347.402 35.816 347.402 35.08C347.402 34.312 347.466 33.672 347.594 33.16H345.674C345.546 32.616 345.482 31.976 345.482 31.24C345.482 30.472 345.546 29.832 345.674 29.32H349.514C349.642 29.832 349.706 30.472 349.706 31.24C349.706 31.976 349.642 32.616 349.514 33.16H357.194C357.066 32.616 357.002 31.976 357.002 31.24C357.002 30.472 357.066 29.832 357.194 29.32C357.066 28.776 357.002 28.136 357.002 27.4C357.002 26.632 357.066 25.992 357.194 25.48H347.594C347.466 24.936 347.402 24.296 347.402 23.56C347.402 22.792 347.466 22.152 347.594 21.64H345.674C345.546 21.096 345.482 20.456 345.482 19.72C345.482 18.952 345.546 18.312 345.674 17.8C345.546 17.256 345.482 16.616 345.482 15.88C345.482 15.112 345.546 14.472 345.674 13.96H347.594C347.466 13.416 347.402 12.776 347.402 12.04C347.402 11.272 347.466 10.632 347.594 10.12H359.114C359.242 10.632 359.306 11.272 359.306 12.04C359.306 12.776 359.242 13.416 359.114 13.96H361.034C361.162 14.472 361.226 15.112 361.226 15.88C361.226 16.616 361.162 17.256 361.034 17.8H357.194C357.066 17.256 357.002 16.616 357.002 15.88C357.002 15.112 357.066 14.472 357.194 13.96H349.514C349.642 14.472 349.706 15.112 349.706 15.88C349.706 16.616 349.642 17.256 349.514 17.8C349.642 18.312 349.706 18.952 349.706 19.72C349.706 20.456 349.642 21.096 349.514 21.64H359.114C359.242 22.152 359.306 22.792 359.306 23.56C359.306 24.296 359.242 24.936 359.114 25.48H361.034Z" fill="white"/>
<path d="M245.941 126.24C245.941 126.976 245.877 127.616 245.749 128.16C245.877 128.672 245.941 129.312 245.941 130.08C245.941 130.816 245.877 131.456 245.749 132H241.909C241.781 131.456 241.717 130.816 241.717 130.08C241.717 129.312 241.781 128.672 241.909 128.16C241.781 127.616 241.717 126.976 241.717 126.24C241.717 125.472 241.781 124.832 241.909 124.32H234.229C234.357 124.832 234.421 125.472 234.421 126.24C234.421 126.976 234.357 127.616 234.229 128.16C234.357 128.672 234.421 129.312 234.421 130.08C234.421 130.816 234.357 131.456 234.229 132H230.389C230.261 131.456 230.197 130.816 230.197 130.08C230.197 129.312 230.261 128.672 230.389 128.16C230.261 127.616 230.197 126.976 230.197 126.24C230.197 125.472 230.261 124.832 230.389 124.32H231.829C231.701 123.776 231.637 123.136 231.637 122.4C231.637 121.632 231.701 120.992 231.829 120.48C231.701 119.936 231.637 119.296 231.637 118.56C231.637 117.792 231.701 117.152 231.829 116.64H232.789C232.661 116.096 232.597 115.456 232.597 114.72C232.597 113.952 232.661 113.312 232.789 112.8H234.229C234.101 112.256 234.037 111.616 234.037 110.88C234.037 110.112 234.101 109.472 234.229 108.96H235.189C235.061 108.416 234.997 107.776 234.997 107.04C234.997 106.272 235.061 105.632 235.189 105.12H240.949C241.077 105.632 241.141 106.272 241.141 107.04C241.141 107.776 241.077 108.416 240.949 108.96H241.909C242.037 109.472 242.101 110.112 242.101 110.88C242.101 111.616 242.037 112.256 241.909 112.8H243.349C243.477 113.312 243.541 113.952 243.541 114.72C243.541 115.456 243.477 116.096 243.349 116.64H244.309C244.437 117.152 244.501 117.792 244.501 118.56C244.501 119.296 244.437 119.936 244.309 120.48C244.437 120.992 244.501 121.632 244.501 122.4C244.501 123.136 244.437 123.776 244.309 124.32H245.749C245.877 124.832 245.941 125.472 245.941 126.24ZM240.469 120.48C240.341 119.936 240.277 119.296 240.277 118.56C240.277 117.792 240.341 117.152 240.469 116.64H239.509C239.381 116.096 239.317 115.456 239.317 114.72C239.317 113.952 239.381 113.312 239.509 112.8H236.629C236.757 113.312 236.821 113.952 236.821 114.72C236.821 115.456 236.757 116.096 236.629 116.64H235.669C235.797 117.152 235.861 117.792 235.861 118.56C235.861 119.296 235.797 119.936 235.669 120.48H240.469ZM264.968 128.16C265.096 128.672 265.16 129.312 265.16 130.08C265.16 130.816 265.096 131.456 264.968 132H261.128C261 131.456 260.936 130.816 260.936 130.08C260.936 129.312 261 128.672 261.128 128.16H259.688C259.56 127.616 259.496 126.976 259.496 126.24C259.496 125.472 259.56 124.832 259.688 124.32H258.248C258.12 123.776 258.056 123.136 258.056 122.4C258.056 121.632 258.12 120.992 258.248 120.48H253.448C253.576 120.992 253.64 121.632 253.64 122.4C253.64 123.136 253.576 123.776 253.448 124.32C253.576 124.832 253.64 125.472 253.64 126.24C253.64 126.976 253.576 127.616 253.448 128.16C253.576 128.672 253.64 129.312 253.64 130.08C253.64 130.816 253.576 131.456 253.448 132H249.608C249.48 131.456 249.416 130.816 249.416 130.08C249.416 129.312 249.48 128.672 249.608 128.16C249.48 127.616 249.416 126.976 249.416 126.24C249.416 125.472 249.48 124.832 249.608 124.32C249.48 123.776 249.416 123.136 249.416 122.4C249.416 121.632 249.48 120.992 249.608 120.48C249.48 119.936 249.416 119.296 249.416 118.56C249.416 117.792 249.48 117.152 249.608 116.64C249.48 116.096 249.416 115.456 249.416 114.72C249.416 113.952 249.48 113.312 249.608 112.8C249.48 112.256 249.416 111.616 249.416 110.88C249.416 110.112 249.48 109.472 249.608 108.96C249.48 108.416 249.416 107.776 249.416 107.04C249.416 106.272 249.48 105.632 249.608 105.12H263.048C263.176 105.632 263.24 106.272 263.24 107.04C263.24 107.776 263.176 108.416 263.048 108.96H264.968C265.096 109.472 265.16 110.112 265.16 110.88C265.16 111.616 265.096 112.256 264.968 112.8H264.008C264.136 113.312 264.2 113.952 264.2 114.72C264.2 115.456 264.136 116.096 264.008 116.64H261.128C261.256 117.152 261.32 117.792 261.32 118.56C261.32 119.296 261.256 119.936 261.128 120.48H262.088C262.216 120.992 262.28 121.632 262.28 122.4C262.28 123.136 262.216 123.776 262.088 124.32H263.528C263.656 124.832 263.72 125.472 263.72 126.24C263.72 126.976 263.656 127.616 263.528 128.16H264.968ZM260.168 116.64C260.04 116.096 259.976 115.456 259.976 114.72C259.976 113.952 260.04 113.312 260.168 112.8C260.04 112.256 259.976 111.616 259.976 110.88C259.976 110.112 260.04 109.472 260.168 108.96H253.448C253.576 109.472 253.64 110.112 253.64 110.88C253.64 111.616 253.576 112.256 253.448 112.8C253.576 113.312 253.64 113.952 253.64 114.72C253.64 115.456 253.576 116.096 253.448 116.64H260.168ZM284.186 124.32C284.314 124.832 284.378 125.472 284.378 126.24C284.378 126.976 284.314 127.616 284.186 128.16H282.266C282.394 128.672 282.458 129.312 282.458 130.08C282.458 130.816 282.394 131.456 282.266 132H272.666C272.538 131.456 272.474 130.816 272.474 130.08C272.474 129.312 272.538 128.672 272.666 128.16H270.746C270.618 127.616 270.554 126.976 270.554 126.24C270.554 125.472 270.618 124.832 270.746 124.32H268.826C268.698 123.776 268.634 123.136 268.634 122.4C268.634 121.632 268.698 120.992 268.826 120.48C268.698 119.936 268.634 119.296 268.634 118.56C268.634 117.792 268.698 117.152 268.826 116.64C268.698 116.096 268.634 115.456 268.634 114.72C268.634 113.952 268.698 113.312 268.826 112.8H270.746C270.618 112.256 270.554 111.616 270.554 110.88C270.554 110.112 270.618 109.472 270.746 108.96H272.666C272.538 108.416 272.474 107.776 272.474 107.04C272.474 106.272 272.538 105.632 272.666 105.12H282.266C282.394 105.632 282.458 106.272 282.458 107.04C282.458 107.776 282.394 108.416 282.266 108.96H284.186C284.314 109.472 284.378 110.112 284.378 110.88C284.378 111.616 284.314 112.256 284.186 112.8H280.346C280.218 112.256 280.154 111.616 280.154 110.88C280.154 110.112 280.218 109.472 280.346 108.96H274.586C274.714 109.472 274.778 110.112 274.778 110.88C274.778 111.616 274.714 112.256 274.586 112.8H272.666C272.794 113.312 272.858 113.952 272.858 114.72C272.858 115.456 272.794 116.096 272.666 116.64C272.794 117.152 272.858 117.792 272.858 118.56C272.858 119.296 272.794 119.936 272.666 120.48C272.794 120.992 272.858 121.632 272.858 122.4C272.858 123.136 272.794 123.776 272.666 124.32H274.586C274.714 124.832 274.778 125.472 274.778 126.24C274.778 126.976 274.714 127.616 274.586 128.16H280.346C280.218 127.616 280.154 126.976 280.154 126.24C280.154 125.472 280.218 124.832 280.346 124.32H284.186ZM303.405 108.96C303.533 109.472 303.597 110.112 303.597 110.88C303.597 111.616 303.533 112.256 303.405 112.8C303.533 113.312 303.597 113.952 303.597 114.72C303.597 115.456 303.533 116.096 303.405 116.64C303.533 117.152 303.597 117.792 303.597 118.56C303.597 119.296 303.533 119.936 303.405 120.48C303.533 120.992 303.597 121.632 303.597 122.4C303.597 123.136 303.533 123.776 303.405 124.32C303.533 124.832 303.597 125.472 303.597 126.24C303.597 126.976 303.533 127.616 303.405 128.16C303.533 128.672 303.597 129.312 303.597 130.08C303.597 130.816 303.533 131.456 303.405 132H299.565C299.437 131.456 299.373 130.816 299.373 130.08C299.373 129.312 299.437 128.672 299.565 128.16C299.437 127.616 299.373 126.976 299.373 126.24C299.373 125.472 299.437 124.832 299.565 124.32C299.437 123.776 299.373 123.136 299.373 122.4C299.373 121.632 299.437 120.992 299.565 120.48H291.885C292.013 120.992 292.077 121.632 292.077 122.4C292.077 123.136 292.013 123.776 291.885 124.32C292.013 124.832 292.077 125.472 292.077 126.24C292.077 126.976 292.013 127.616 291.885 128.16C292.013 128.672 292.077 129.312 292.077 130.08C292.077 130.816 292.013 131.456 291.885 132H288.045C287.917 131.456 287.853 130.816 287.853 130.08C287.853 129.312 287.917 128.672 288.045 128.16C287.917 127.616 287.853 126.976 287.853 126.24C287.853 125.472 287.917 124.832 288.045 124.32C287.917 123.776 287.853 123.136 287.853 122.4C287.853 121.632 287.917 120.992 288.045 120.48C287.917 119.936 287.853 119.296 287.853 118.56C287.853 117.792 287.917 117.152 288.045 116.64C287.917 116.096 287.853 115.456 287.853 114.72C287.853 113.952 287.917 113.312 288.045 112.8C287.917 112.256 287.853 111.616 287.853 110.88C287.853 110.112 287.917 109.472 288.045 108.96C287.917 108.416 287.853 107.776 287.853 107.04C287.853 106.272 287.917 105.632 288.045 105.12H291.885C292.013 105.632 292.077 106.272 292.077 107.04C292.077 107.776 292.013 108.416 291.885 108.96C292.013 109.472 292.077 110.112 292.077 110.88C292.077 111.616 292.013 112.256 291.885 112.8C292.013 113.312 292.077 113.952 292.077 114.72C292.077 115.456 292.013 116.096 291.885 116.64H299.565C299.437 116.096 299.373 115.456 299.373 114.72C299.373 113.952 299.437 113.312 299.565 112.8C299.437 112.256 299.373 111.616 299.373 110.88C299.373 110.112 299.437 109.472 299.565 108.96C299.437 108.416 299.373 107.776 299.373 107.04C299.373 106.272 299.437 105.632 299.565 105.12H303.405C303.533 105.632 303.597 106.272 303.597 107.04C303.597 107.776 303.533 108.416 303.405 108.96ZM319.744 128.16C319.872 128.672 319.936 129.312 319.936 130.08C319.936 130.816 319.872 131.456 319.744 132H310.144C310.016 131.456 309.952 130.816 309.952 130.08C309.952 129.312 310.016 128.672 310.144 128.16H313.024C312.896 127.616 312.832 126.976 312.832 126.24C312.832 125.472 312.896 124.832 313.024 124.32C312.896 123.776 312.832 123.136 312.832 122.4C312.832 121.632 312.896 120.992 313.024 120.48C312.896 119.936 312.832 119.296 312.832 118.56C312.832 117.792 312.896 117.152 313.024 116.64C312.896 116.096 312.832 115.456 312.832 114.72C312.832 113.952 312.896 113.312 313.024 112.8C312.896 112.256 312.832 111.616 312.832 110.88C312.832 110.112 312.896 109.472 313.024 108.96H310.144C310.016 108.416 309.952 107.776 309.952 107.04C309.952 106.272 310.016 105.632 310.144 105.12H319.744C319.872 105.632 319.936 106.272 319.936 107.04C319.936 107.776 319.872 108.416 319.744 108.96H316.864C316.992 109.472 317.056 110.112 317.056 110.88C317.056 111.616 316.992 112.256 316.864 112.8C316.992 113.312 317.056 113.952 317.056 114.72C317.056 115.456 316.992 116.096 316.864 116.64C316.992 117.152 317.056 117.792 317.056 118.56C317.056 119.296 316.992 119.936 316.864 120.48C316.992 120.992 317.056 121.632 317.056 122.4C317.056 123.136 316.992 123.776 316.864 124.32C316.992 124.832 317.056 125.472 317.056 126.24C317.056 126.976 316.992 127.616 316.864 128.16H319.744ZM341.843 108.96C341.971 109.472 342.035 110.112 342.035 110.88C342.035 111.616 341.971 112.256 341.843 112.8C341.971 113.312 342.035 113.952 342.035 114.72C342.035 115.456 341.971 116.096 341.843 116.64H340.403C340.531 117.152 340.595 117.792 340.595 118.56C340.595 119.296 340.531 119.936 340.403 120.48H338.963C339.091 120.992 339.155 121.632 339.155 122.4C339.155 123.136 339.091 123.776 338.963 124.32H338.003C338.131 124.832 338.195 125.472 338.195 126.24C338.195 126.976 338.131 127.616 338.003 128.16H336.083C336.211 128.672 336.275 129.312 336.275 130.08C336.275 130.816 336.211 131.456 336.083 132H332.243C332.115 131.456 332.051 130.816 332.051 130.08C332.051 129.312 332.115 128.672 332.243 128.16H330.323C330.195 127.616 330.131 126.976 330.131 126.24C330.131 125.472 330.195 124.832 330.323 124.32H329.363C329.235 123.776 329.171 123.136 329.171 122.4C329.171 121.632 329.235 120.992 329.363 120.48H327.923C327.794 119.936 327.73 119.296 327.73 118.56C327.73 117.792 327.794 117.152 327.923 116.64H326.483C326.355 116.096 326.291 115.456 326.291 114.72C326.291 113.952 326.355 113.312 326.483 112.8C326.355 112.256 326.291 111.616 326.291 110.88C326.291 110.112 326.355 109.472 326.483 108.96C326.355 108.416 326.291 107.776 326.291 107.04C326.291 106.272 326.355 105.632 326.483 105.12H330.323C330.451 105.632 330.515 106.272 330.515 107.04C330.515 107.776 330.451 108.416 330.323 108.96C330.451 109.472 330.515 110.112 330.515 110.88C330.515 111.616 330.451 112.256 330.323 112.8C330.451 113.312 330.515 113.952 330.515 114.72C330.515 115.456 330.451 116.096 330.323 116.64H331.763C331.891 117.152 331.955 117.792 331.955 118.56C331.955 119.296 331.891 119.936 331.763 120.48H333.203C333.331 120.992 333.395 121.632 333.395 122.4C333.395 123.136 333.331 123.776 333.203 124.32H335.123C334.995 123.776 334.931 123.136 334.931 122.4C334.931 121.632 334.995 120.992 335.123 120.48H336.562C336.435 119.936 336.371 119.296 336.371 118.56C336.371 117.792 336.435 117.152 336.562 116.64H338.003C337.875 116.096 337.811 115.456 337.811 114.72C337.811 113.952 337.875 113.312 338.003 112.8C337.875 112.256 337.811 111.616 337.811 110.88C337.811 110.112 337.875 109.472 338.003 108.96C337.875 108.416 337.811 107.776 337.811 107.04C337.811 106.272 337.875 105.632 338.003 105.12H341.843C341.971 105.632 342.035 106.272 342.035 107.04C342.035 107.776 341.971 108.416 341.843 108.96ZM351.461 120.48C351.589 120.992 351.653 121.632 351.653 122.4C351.653 123.136 351.589 123.776 351.461 124.32C351.589 124.832 351.653 125.472 351.653 126.24C351.653 126.976 351.589 127.616 351.461 128.16H359.141C359.269 128.672 359.333 129.312 359.333 130.08C359.333 130.816 359.269 131.456 359.141 132H347.621C347.493 131.456 347.429 130.816 347.429 130.08C347.429 129.312 347.493 128.672 347.621 128.16C347.493 127.616 347.429 126.976 347.429 126.24C347.429 125.472 347.493 124.832 347.621 124.32C347.493 123.776 347.429 123.136 347.429 122.4C347.429 121.632 347.493 120.992 347.621 120.48C347.493 119.936 347.429 119.296 347.429 118.56C347.429 117.792 347.493 117.152 347.621 116.64C347.493 116.096 347.429 115.456 347.429 114.72C347.429 113.952 347.493 113.312 347.621 112.8C347.493 112.256 347.429 111.616 347.429 110.88C347.429 110.112 347.493 109.472 347.621 108.96C347.493 108.416 347.429 107.776 347.429 107.04C347.429 106.272 347.493 105.632 347.621 105.12H359.141C359.269 105.632 359.333 106.272 359.333 107.04C359.333 107.776 359.269 108.416 359.141 108.96H351.461C351.589 109.472 351.653 110.112 351.653 110.88C351.653 111.616 351.589 112.256 351.461 112.8C351.589 113.312 351.653 113.952 351.653 114.72C351.653 115.456 351.589 116.096 351.461 116.64H359.141C359.269 117.152 359.333 117.792 359.333 118.56C359.333 119.296 359.269 119.936 359.141 120.48H351.461Z" fill="white"/>
<path d="M25.736 56.12C25.736 56.488 25.704 56.808 25.64 57.08C25.704 57.336 25.736 57.656 25.736 58.04C25.736 58.408 25.704 58.728 25.64 59H23.72C23.656 58.728 23.624 58.408 23.624 58.04C23.624 57.656 23.656 57.336 23.72 57.08C23.656 56.808 23.624 56.488 23.624 56.12C23.624 55.736 23.656 55.416 23.72 55.16H19.88C19.944 55.416 19.976 55.736 19.976 56.12C19.976 56.488 19.944 56.808 19.88 57.08C19.944 57.336 19.976 57.656 19.976 58.04C19.976 58.408 19.944 58.728 19.88 59H17.96C17.896 58.728 17.864 58.408 17.864 58.04C17.864 57.656 17.896 57.336 17.96 57.08C17.896 56.808 17.864 56.488 17.864 56.12C17.864 55.736 17.896 55.416 17.96 55.16H18.68C18.616 54.888 18.584 54.568 18.584 54.2C18.584 53.816 18.616 53.496 18.68 53.24C18.616 52.968 18.584 52.648 18.584 52.28C18.584 51.896 18.616 51.576 18.68 51.32H19.16C19.096 51.048 19.064 50.728 19.064 50.36C19.064 49.976 19.096 49.656 19.16 49.4H19.88C19.816 49.128 19.784 48.808 19.784 48.44C19.784 48.056 19.816 47.736 19.88 47.48H20.36C20.296 47.208 20.264 46.888 20.264 46.52C20.264 46.136 20.296 45.816 20.36 45.56H23.24C23.304 45.816 23.336 46.136 23.336 46.52C23.336 46.888 23.304 47.208 23.24 47.48H23.72C23.784 47.736 23.816 48.056 23.816 48.44C23.816 48.808 23.784 49.128 23.72 49.4H24.44C24.504 49.656 24.536 49.976 24.536 50.36C24.536 50.728 24.504 51.048 24.44 51.32H24.92C24.984 51.576 25.016 51.896 25.016 52.28C25.016 52.648 24.984 52.968 24.92 53.24C24.984 53.496 25.016 53.816 25.016 54.2C25.016 54.568 24.984 54.888 24.92 55.16H25.64C25.704 55.416 25.736 55.736 25.736 56.12ZM23 53.24C22.936 52.968 22.904 52.648 22.904 52.28C22.904 51.896 22.936 51.576 23 51.32H22.52C22.456 51.048 22.424 50.728 22.424 50.36C22.424 49.976 22.456 49.656 22.52 49.4H21.08C21.144 49.656 21.176 49.976 21.176 50.36C21.176 50.728 21.144 51.048 21.08 51.32H20.6C20.664 51.576 20.696 51.896 20.696 52.28C20.696 52.648 20.664 52.968 20.6 53.24H23ZM44.8588 47.48C44.9228 47.736 44.9548 48.056 44.9548 48.44C44.9548 48.808 44.9228 49.128 44.8588 49.4C44.9228 49.656 44.9548 49.976 44.9548 50.36C44.9548 50.728 44.9228 51.048 44.8588 51.32C44.9228 51.576 44.9548 51.896 44.9548 52.28C44.9548 52.648 44.9228 52.968 44.8588 53.24C44.9228 53.496 44.9548 53.816 44.9548 54.2C44.9548 54.568 44.9228 54.888 44.8588 55.16C44.9228 55.416 44.9548 55.736 44.9548 56.12C44.9548 56.488 44.9228 56.808 44.8588 57.08C44.9228 57.336 44.9548 57.656 44.9548 58.04C44.9548 58.408 44.9228 58.728 44.8588 59H42.9388C42.8748 58.728 42.8428 58.408 42.8428 58.04C42.8428 57.656 42.8748 57.336 42.9388 57.08C42.8748 56.808 42.8428 56.488 42.8428 56.12C42.8428 55.736 42.8748 55.416 42.9388 55.16C42.8748 54.888 42.8428 54.568 42.8428 54.2C42.8428 53.816 42.8748 53.496 42.9388 53.24H39.0988C39.1628 53.496 39.1948 53.816 39.1948 54.2C39.1948 54.568 39.1628 54.888 39.0988 55.16C39.1628 55.416 39.1948 55.736 39.1948 56.12C39.1948 56.488 39.1628 56.808 39.0988 57.08C39.1628 57.336 39.1948 57.656 39.1948 58.04C39.1948 58.408 39.1628 58.728 39.0988 59H37.1788C37.1148 58.728 37.0828 58.408 37.0828 58.04C37.0828 57.656 37.1148 57.336 37.1788 57.08C37.1148 56.808 37.0828 56.488 37.0828 56.12C37.0828 55.736 37.1148 55.416 37.1788 55.16C37.1148 54.888 37.0828 54.568 37.0828 54.2C37.0828 53.816 37.1148 53.496 37.1788 53.24C37.1148 52.968 37.0828 52.648 37.0828 52.28C37.0828 51.896 37.1148 51.576 37.1788 51.32C37.1148 51.048 37.0828 50.728 37.0828 50.36C37.0828 49.976 37.1148 49.656 37.1788 49.4C37.1148 49.128 37.0828 48.808 37.0828 48.44C37.0828 48.056 37.1148 47.736 37.1788 47.48C37.1148 47.208 37.0828 46.888 37.0828 46.52C37.0828 46.136 37.1148 45.816 37.1788 45.56H39.0988C39.1628 45.816 39.1948 46.136 39.1948 46.52C39.1948 46.888 39.1628 47.208 39.0988 47.48C39.1628 47.736 39.1948 48.056 39.1948 48.44C39.1948 48.808 39.1628 49.128 39.0988 49.4C39.1628 49.656 39.1948 49.976 39.1948 50.36C39.1948 50.728 39.1628 51.048 39.0988 51.32H42.9388C42.8748 51.048 42.8428 50.728 42.8428 50.36C42.8428 49.976 42.8748 49.656 42.9388 49.4C42.8748 49.128 42.8428 48.808 42.8428 48.44C42.8428 48.056 42.8748 47.736 42.9388 47.48C42.8748 47.208 42.8428 46.888 42.8428 46.52C42.8428 46.136 42.8748 45.816 42.9388 45.56H44.8588C44.9228 45.816 44.9548 46.136 44.9548 46.52C44.9548 46.888 44.9228 47.208 44.8588 47.48ZM54.5641 54.2C54.5641 54.568 54.5321 54.888 54.4681 55.16H53.7481C53.8121 55.416 53.8441 55.736 53.8441 56.12C53.8441 56.488 53.8121 56.808 53.7481 57.08H52.5481C52.6121 57.336 52.6441 57.656 52.6441 58.04C52.6441 58.408 52.6121 58.728 52.5481 59H48.7081C48.6441 58.728 48.6121 58.408 48.6121 58.04C48.6121 57.656 48.6441 57.336 48.7081 57.08H47.5081C47.4441 56.808 47.4121 56.488 47.4121 56.12C47.4121 55.736 47.4441 55.416 47.5081 55.16H46.7881C46.7241 54.888 46.6921 54.568 46.6921 54.2C46.6921 53.816 46.7241 53.496 46.7881 53.24H47.5081C47.4441 52.968 47.4121 52.648 47.4121 52.28C47.4121 51.896 47.4441 51.576 47.5081 51.32H48.7081C48.6441 51.048 48.6121 50.728 48.6121 50.36C48.6121 49.976 48.6441 49.656 48.7081 49.4H52.5481C52.6121 49.656 52.6441 49.976 52.6441 50.36C52.6441 50.728 52.6121 51.048 52.5481 51.32H53.7481C53.8121 51.576 53.8441 51.896 53.8441 52.28C53.8441 52.648 53.8121 52.968 53.7481 53.24H54.4681C54.5321 53.496 54.5641 53.816 54.5641 54.2ZM52.5481 55.16C52.4841 54.888 52.4521 54.568 52.4521 54.2C52.4521 53.816 52.4841 53.496 52.5481 53.24H51.8281C51.7641 52.968 51.7321 52.648 51.7321 52.28C51.7321 51.896 51.7641 51.576 51.8281 51.32H49.4281C49.4921 51.576 49.5241 51.896 49.5241 52.28C49.5241 52.648 49.4921 52.968 49.4281 53.24H48.7081C48.7721 53.496 48.8041 53.816 48.8041 54.2C48.8041 54.568 48.7721 54.888 48.7081 55.16H49.4281C49.4921 55.416 49.5241 55.736 49.5241 56.12C49.5241 56.488 49.4921 56.808 49.4281 57.08H51.8281C51.7641 56.808 51.7321 56.488 51.7321 56.12C51.7321 55.736 51.7641 55.416 51.8281 55.16H52.5481ZM57.6935 50.36C57.6935 50.728 57.6615 51.048 57.5975 51.32H58.3175C58.3815 51.576 58.4135 51.896 58.4135 52.28C58.4135 52.648 58.3815 52.968 58.3175 53.24C58.3815 53.496 58.4135 53.816 58.4135 54.2C58.4135 54.568 58.3815 54.888 58.3175 55.16C58.3815 55.416 58.4135 55.736 58.4135 56.12C58.4135 56.488 58.3815 56.808 58.3175 57.08C58.3815 57.336 58.4135 57.656 58.4135 58.04C58.4135 58.408 58.3815 58.728 58.3175 59H56.3975C56.3335 58.728 56.3015 58.408 56.3015 58.04C56.3015 57.656 56.3335 57.336 56.3975 57.08C56.3335 56.808 56.3015 56.488 56.3015 56.12C56.3015 55.736 56.3335 55.416 56.3975 55.16C56.3335 54.888 56.3015 54.568 56.3015 54.2C56.3015 53.816 56.3335 53.496 56.3975 53.24C56.3335 52.968 56.3015 52.648 56.3015 52.28C56.3015 51.896 56.3335 51.576 56.3975 51.32C56.3335 51.048 56.3015 50.728 56.3015 50.36C56.3015 49.976 56.3335 49.656 56.3975 49.4H57.5975C57.6615 49.656 57.6935 49.976 57.6935 50.36ZM60.3335 50.36C60.3335 50.728 60.3015 51.048 60.2375 51.32H60.9575C61.0215 51.576 61.0535 51.896 61.0535 52.28C61.0535 52.648 61.0215 52.968 60.9575 53.24C61.0215 53.496 61.0535 53.816 61.0535 54.2C61.0535 54.568 61.0215 54.888 60.9575 55.16C61.0215 55.416 61.0535 55.736 61.0535 56.12C61.0535 56.488 61.0215 56.808 60.9575 57.08C61.0215 57.336 61.0535 57.656 61.0535 58.04C61.0535 58.408 61.0215 58.728 60.9575 59H59.5175C59.4535 58.728 59.4215 58.408 59.4215 58.04C59.4215 57.656 59.4535 57.336 59.5175 57.08C59.4535 56.808 59.4215 56.488 59.4215 56.12C59.4215 55.736 59.4535 55.416 59.5175 55.16C59.4535 54.888 59.4215 54.568 59.4215 54.2C59.4215 53.816 59.4535 53.496 59.5175 53.24C59.4535 52.968 59.4215 52.648 59.4215 52.28C59.4215 51.896 59.4535 51.576 59.5175 51.32H58.3175C58.2535 51.048 58.2215 50.728 58.2215 50.36C58.2215 49.976 58.2535 49.656 58.3175 49.4H60.2375C60.3015 49.656 60.3335 49.976 60.3335 50.36ZM64.0775 53.24C64.1415 53.496 64.1735 53.816 64.1735 54.2C64.1735 54.568 64.1415 54.888 64.0775 55.16C64.1415 55.416 64.1735 55.736 64.1735 56.12C64.1735 56.488 64.1415 56.808 64.0775 57.08C64.1415 57.336 64.1735 57.656 64.1735 58.04C64.1735 58.408 64.1415 58.728 64.0775 59H62.1575C62.0935 58.728 62.0615 58.408 62.0615 58.04C62.0615 57.656 62.0935 57.336 62.1575 57.08C62.0935 56.808 62.0615 56.488 62.0615 56.12C62.0615 55.736 62.0935 55.416 62.1575 55.16C62.0935 54.888 62.0615 54.568 62.0615 54.2C62.0615 53.816 62.0935 53.496 62.1575 53.24C62.0935 52.968 62.0615 52.648 62.0615 52.28C62.0615 51.896 62.0935 51.576 62.1575 51.32H60.9575C60.8935 51.048 60.8615 50.728 60.8615 50.36C60.8615 49.976 60.8935 49.656 60.9575 49.4H63.1175C63.1815 49.656 63.2135 49.976 63.2135 50.36C63.2135 50.728 63.1815 51.048 63.1175 51.32H64.0775C64.1415 51.576 64.1735 51.896 64.1735 52.28C64.1735 52.648 64.1415 52.968 64.0775 53.24ZM73.7829 52.28C73.7829 52.648 73.7509 52.968 73.6869 53.24C73.7509 53.496 73.7829 53.816 73.7829 54.2C73.7829 54.568 73.7509 54.888 73.6869 55.16H68.6469C68.7109 55.416 68.7429 55.736 68.7429 56.12C68.7429 56.488 68.7109 56.808 68.6469 57.08H72.7269C72.7909 57.336 72.8229 57.656 72.8229 58.04C72.8229 58.408 72.7909 58.728 72.7269 59H67.9269C67.8629 58.728 67.8309 58.408 67.8309 58.04C67.8309 57.656 67.8629 57.336 67.9269 57.08H66.7269C66.6629 56.808 66.6309 56.488 66.6309 56.12C66.6309 55.736 66.6629 55.416 66.7269 55.16H66.0069C65.9429 54.888 65.9109 54.568 65.9109 54.2C65.9109 53.816 65.9429 53.496 66.0069 53.24H66.7269C66.6629 52.968 66.6309 52.648 66.6309 52.28C66.6309 51.896 66.6629 51.576 66.7269 51.32H67.9269C67.8629 51.048 67.8309 50.728 67.8309 50.36C67.8309 49.976 67.8629 49.656 67.9269 49.4H72.7269C72.7909 49.656 72.8229 49.976 72.8229 50.36C72.8229 50.728 72.7909 51.048 72.7269 51.32H73.6869C73.7509 51.576 73.7829 51.896 73.7829 52.28ZM71.7669 53.24C71.7029 52.968 71.6709 52.648 71.6709 52.28C71.6709 51.896 71.7029 51.576 71.7669 51.32H68.6469C68.7109 51.576 68.7429 51.896 68.7429 52.28C68.7429 52.648 68.7109 52.968 68.6469 53.24H71.7669ZM91.9456 51.32C92.0096 51.576 92.0416 51.896 92.0416 52.28C92.0416 52.648 92.0096 52.968 91.9456 53.24H88.1056C88.1696 53.496 88.2016 53.816 88.2016 54.2C88.2016 54.568 88.1696 54.888 88.1056 55.16C88.1696 55.416 88.2016 55.736 88.2016 56.12C88.2016 56.488 88.1696 56.808 88.1056 57.08C88.1696 57.336 88.2016 57.656 88.2016 58.04C88.2016 58.408 88.1696 58.728 88.1056 59H86.1856C86.1216 58.728 86.0896 58.408 86.0896 58.04C86.0896 57.656 86.1216 57.336 86.1856 57.08C86.1216 56.808 86.0896 56.488 86.0896 56.12C86.0896 55.736 86.1216 55.416 86.1856 55.16C86.1216 54.888 86.0896 54.568 86.0896 54.2C86.0896 53.816 86.1216 53.496 86.1856 53.24C86.1216 52.968 86.0896 52.648 86.0896 52.28C86.0896 51.896 86.1216 51.576 86.1856 51.32C86.1216 51.048 86.0896 50.728 86.0896 50.36C86.0896 49.976 86.1216 49.656 86.1856 49.4C86.1216 49.128 86.0896 48.808 86.0896 48.44C86.0896 48.056 86.1216 47.736 86.1856 47.48C86.1216 47.208 86.0896 46.888 86.0896 46.52C86.0896 46.136 86.1216 45.816 86.1856 45.56H91.9456C92.0096 45.816 92.0416 46.136 92.0416 46.52C92.0416 46.888 92.0096 47.208 91.9456 47.48H88.1056C88.1696 47.736 88.2016 48.056 88.2016 48.44C88.2016 48.808 88.1696 49.128 88.1056 49.4C88.1696 49.656 88.2016 49.976 88.2016 50.36C88.2016 50.728 88.1696 51.048 88.1056 51.32H91.9456ZM102.611 54.2C102.611 54.568 102.579 54.888 102.515 55.16H101.795C101.859 55.416 101.891 55.736 101.891 56.12C101.891 56.488 101.859 56.808 101.795 57.08H100.595C100.659 57.336 100.691 57.656 100.691 58.04C100.691 58.408 100.659 58.728 100.595 59H96.755C96.691 58.728 96.659 58.408 96.659 58.04C96.659 57.656 96.691 57.336 96.755 57.08H95.555C95.491 56.808 95.459 56.488 95.459 56.12C95.459 55.736 95.491 55.416 95.555 55.16H94.835C94.771 54.888 94.739 54.568 94.739 54.2C94.739 53.816 94.771 53.496 94.835 53.24H95.555C95.491 52.968 95.459 52.648 95.459 52.28C95.459 51.896 95.491 51.576 95.555 51.32H96.755C96.691 51.048 96.659 50.728 96.659 50.36C96.659 49.976 96.691 49.656 96.755 49.4H100.595C100.659 49.656 100.691 49.976 100.691 50.36C100.691 50.728 100.659 51.048 100.595 51.32H101.795C101.859 51.576 101.891 51.896 101.891 52.28C101.891 52.648 101.859 52.968 101.795 53.24H102.515C102.579 53.496 102.611 53.816 102.611 54.2ZM100.595 55.16C100.531 54.888 100.499 54.568 100.499 54.2C100.499 53.816 100.531 53.496 100.595 53.24H99.875C99.811 52.968 99.779 52.648 99.779 52.28C99.779 51.896 99.811 51.576 99.875 51.32H97.475C97.539 51.576 97.571 51.896 97.571 52.28C97.571 52.648 97.539 52.968 97.475 53.24H96.755C96.819 53.496 96.851 53.816 96.851 54.2C96.851 54.568 96.819 54.888 96.755 55.16H97.475C97.539 55.416 97.571 55.736 97.571 56.12C97.571 56.488 97.539 56.808 97.475 57.08H99.875C99.811 56.808 99.779 56.488 99.779 56.12C99.779 55.736 99.811 55.416 99.875 55.16H100.595ZM112.124 51.32C112.188 51.576 112.22 51.896 112.22 52.28C112.22 52.648 112.188 52.968 112.124 53.24H110.204C110.14 52.968 110.108 52.648 110.108 52.28C110.108 51.896 110.14 51.576 110.204 51.32H108.524C108.588 51.576 108.62 51.896 108.62 52.28C108.62 52.648 108.588 52.968 108.524 53.24H107.804C107.868 53.496 107.9 53.816 107.9 54.2C107.9 54.568 107.868 54.888 107.804 55.16C107.868 55.416 107.9 55.736 107.9 56.12C107.9 56.488 107.868 56.808 107.804 57.08H109.244C109.308 57.336 109.34 57.656 109.34 58.04C109.34 58.408 109.308 58.728 109.244 59H104.444C104.38 58.728 104.348 58.408 104.348 58.04C104.348 57.656 104.38 57.336 104.444 57.08H105.884C105.82 56.808 105.788 56.488 105.788 56.12C105.788 55.736 105.82 55.416 105.884 55.16C105.82 54.888 105.788 54.568 105.788 54.2C105.788 53.816 105.82 53.496 105.884 53.24C105.82 52.968 105.788 52.648 105.788 52.28C105.788 51.896 105.82 51.576 105.884 51.32H104.444C104.38 51.048 104.348 50.728 104.348 50.36C104.348 49.976 104.38 49.656 104.444 49.4H106.844C106.908 49.656 106.94 49.976 106.94 50.36C106.94 50.728 106.908 51.048 106.844 51.32H107.804C107.74 51.048 107.708 50.728 107.708 50.36C107.708 49.976 107.74 49.656 107.804 49.4H111.404C111.468 49.656 111.5 49.976 111.5 50.36C111.5 50.728 111.468 51.048 111.404 51.32H112.124ZM131.343 51.32C131.407 51.576 131.439 51.896 131.439 52.28C131.439 52.648 131.407 52.968 131.343 53.24C131.407 53.496 131.439 53.816 131.439 54.2C131.439 54.568 131.407 54.888 131.343 55.16C131.407 55.416 131.439 55.736 131.439 56.12C131.439 56.488 131.407 56.808 131.343 57.08H130.383C130.447 57.336 130.479 57.656 130.479 58.04C130.479 58.408 130.447 58.728 130.383 59H125.583C125.519 58.728 125.487 58.408 125.487 58.04C125.487 57.656 125.519 57.336 125.583 57.08H124.623C124.559 56.808 124.527 56.488 124.527 56.12C124.527 55.736 124.559 55.416 124.623 55.16H123.663C123.599 54.888 123.567 54.568 123.567 54.2C123.567 53.816 123.599 53.496 123.663 53.24C123.599 52.968 123.567 52.648 123.567 52.28C123.567 51.896 123.599 51.576 123.663 51.32C123.599 51.048 123.567 50.728 123.567 50.36C123.567 49.976 123.599 49.656 123.663 49.4H124.623C124.559 49.128 124.527 48.808 124.527 48.44C124.527 48.056 124.559 47.736 124.623 47.48H125.583C125.519 47.208 125.487 46.888 125.487 46.52C125.487 46.136 125.519 45.816 125.583 45.56H130.383C130.447 45.816 130.479 46.136 130.479 46.52C130.479 46.888 130.447 47.208 130.383 47.48H131.343C131.407 47.736 131.439 48.056 131.439 48.44C131.439 48.808 131.407 49.128 131.343 49.4H129.423C129.359 49.128 129.327 48.808 129.327 48.44C129.327 48.056 129.359 47.736 129.423 47.48H126.543C126.607 47.736 126.639 48.056 126.639 48.44C126.639 48.808 126.607 49.128 126.543 49.4H125.583C125.647 49.656 125.679 49.976 125.679 50.36C125.679 50.728 125.647 51.048 125.583 51.32C125.647 51.576 125.679 51.896 125.679 52.28C125.679 52.648 125.647 52.968 125.583 53.24C125.647 53.496 125.679 53.816 125.679 54.2C125.679 54.568 125.647 54.888 125.583 55.16H126.543C126.607 55.416 126.639 55.736 126.639 56.12C126.639 56.488 126.607 56.808 126.543 57.08H129.423C129.359 56.808 129.327 56.488 129.327 56.12C129.327 55.736 129.359 55.416 129.423 55.16C129.359 54.888 129.327 54.568 129.327 54.2C129.327 53.816 129.359 53.496 129.423 53.24H127.983C127.919 52.968 127.887 52.648 127.887 52.28C127.887 51.896 127.919 51.576 127.983 51.32H131.343ZM141.049 52.28C141.049 52.648 141.017 52.968 140.953 53.24C141.017 53.496 141.049 53.816 141.049 54.2C141.049 54.568 141.017 54.888 140.953 55.16H135.913C135.977 55.416 136.009 55.736 136.009 56.12C136.009 56.488 135.977 56.808 135.913 57.08H139.993C140.057 57.336 140.089 57.656 140.089 58.04C140.089 58.408 140.057 58.728 139.993 59H135.193C135.129 58.728 135.097 58.408 135.097 58.04C135.097 57.656 135.129 57.336 135.193 57.08H133.993C133.928 56.808 133.896 56.488 133.896 56.12C133.896 55.736 133.928 55.416 133.993 55.16H133.273C133.209 54.888 133.177 54.568 133.177 54.2C133.177 53.816 133.209 53.496 133.273 53.24H133.993C133.928 52.968 133.896 52.648 133.896 52.28C133.896 51.896 133.928 51.576 133.993 51.32H135.193C135.129 51.048 135.097 50.728 135.097 50.36C135.097 49.976 135.129 49.656 135.193 49.4H139.993C140.057 49.656 140.089 49.976 140.089 50.36C140.089 50.728 140.057 51.048 139.993 51.32H140.953C141.017 51.576 141.049 51.896 141.049 52.28ZM139.033 53.24C138.969 52.968 138.937 52.648 138.937 52.28C138.937 51.896 138.969 51.576 139.033 51.32H135.913C135.977 51.576 136.009 51.896 136.009 52.28C136.009 52.648 135.977 52.968 135.913 53.24H139.033ZM144.658 50.36C144.658 50.728 144.626 51.048 144.562 51.32H145.522C145.586 51.576 145.618 51.896 145.618 52.28C145.618 52.648 145.586 52.968 145.522 53.24H144.802C144.866 53.496 144.898 53.816 144.898 54.2C144.898 54.568 144.866 54.888 144.802 55.16C144.866 55.416 144.898 55.736 144.898 56.12C144.898 56.488 144.866 56.808 144.802 57.08C144.866 57.336 144.898 57.656 144.898 58.04C144.898 58.408 144.866 58.728 144.802 59H142.882C142.818 58.728 142.786 58.408 142.786 58.04C142.786 57.656 142.818 57.336 142.882 57.08C142.818 56.808 142.786 56.488 142.786 56.12C142.786 55.736 142.818 55.416 142.882 55.16C142.818 54.888 142.786 54.568 142.786 54.2C142.786 53.816 142.818 53.496 142.882 53.24C142.818 52.968 142.786 52.648 142.786 52.28C142.786 51.896 142.818 51.576 142.882 51.32C142.818 51.048 142.786 50.728 142.786 50.36C142.786 49.976 142.818 49.656 142.882 49.4H144.562C144.626 49.656 144.658 49.976 144.658 50.36ZM150.562 53.24C150.626 53.496 150.658 53.816 150.658 54.2C150.658 54.568 150.626 54.888 150.562 55.16C150.626 55.416 150.658 55.736 150.658 56.12C150.658 56.488 150.626 56.808 150.562 57.08C150.626 57.336 150.658 57.656 150.658 58.04C150.658 58.408 150.626 58.728 150.562 59H148.642C148.578 58.728 148.546 58.408 148.546 58.04C148.546 57.656 148.578 57.336 148.642 57.08C148.578 56.808 148.546 56.488 148.546 56.12C148.546 55.736 148.578 55.416 148.642 55.16C148.578 54.888 148.546 54.568 148.546 54.2C148.546 53.816 148.578 53.496 148.642 53.24C148.578 52.968 148.546 52.648 148.546 52.28C148.546 51.896 148.578 51.576 148.642 51.32H145.522C145.458 51.048 145.426 50.728 145.426 50.36C145.426 49.976 145.458 49.656 145.522 49.4H149.362C149.426 49.656 149.458 49.976 149.458 50.36C149.458 50.728 149.426 51.048 149.362 51.32H150.562C150.626 51.576 150.658 51.896 150.658 52.28C150.658 52.648 150.626 52.968 150.562 53.24ZM160.267 52.28C160.267 52.648 160.235 52.968 160.171 53.24C160.235 53.496 160.267 53.816 160.267 54.2C160.267 54.568 160.235 54.888 160.171 55.16H155.131C155.195 55.416 155.227 55.736 155.227 56.12C155.227 56.488 155.195 56.808 155.131 57.08H159.211C159.275 57.336 159.307 57.656 159.307 58.04C159.307 58.408 159.275 58.728 159.211 59H154.411C154.347 58.728 154.315 58.408 154.315 58.04C154.315 57.656 154.347 57.336 154.411 57.08H153.211C153.147 56.808 153.115 56.488 153.115 56.12C153.115 55.736 153.147 55.416 153.211 55.16H152.491C152.427 54.888 152.395 54.568 152.395 54.2C152.395 53.816 152.427 53.496 152.491 53.24H153.211C153.147 52.968 153.115 52.648 153.115 52.28C153.115 51.896 153.147 51.576 153.211 51.32H154.411C154.347 51.048 154.315 50.728 154.315 50.36C154.315 49.976 154.347 49.656 154.411 49.4H159.211C159.275 49.656 159.307 49.976 159.307 50.36C159.307 50.728 159.275 51.048 159.211 51.32H160.171C160.235 51.576 160.267 51.896 160.267 52.28ZM158.251 53.24C158.187 52.968 158.155 52.648 158.155 52.28C158.155 51.896 158.187 51.576 158.251 51.32H155.131C155.195 51.576 155.227 51.896 155.227 52.28C155.227 52.648 155.195 52.968 155.131 53.24H158.251ZM169.781 51.32C169.845 51.576 169.877 51.896 169.877 52.28C169.877 52.648 169.845 52.968 169.781 53.24H167.861C167.797 52.968 167.765 52.648 167.765 52.28C167.765 51.896 167.797 51.576 167.861 51.32H166.181C166.245 51.576 166.277 51.896 166.277 52.28C166.277 52.648 166.245 52.968 166.181 53.24H165.461C165.525 53.496 165.557 53.816 165.557 54.2C165.557 54.568 165.525 54.888 165.461 55.16C165.525 55.416 165.557 55.736 165.557 56.12C165.557 56.488 165.525 56.808 165.461 57.08H166.901C166.965 57.336 166.997 57.656 166.997 58.04C166.997 58.408 166.965 58.728 166.901 59H162.101C162.037 58.728 162.005 58.408 162.005 58.04C162.005 57.656 162.037 57.336 162.101 57.08H163.541C163.477 56.808 163.445 56.488 163.445 56.12C163.445 55.736 163.477 55.416 163.541 55.16C163.477 54.888 163.445 54.568 163.445 54.2C163.445 53.816 163.477 53.496 163.541 53.24C163.477 52.968 163.445 52.648 163.445 52.28C163.445 51.896 163.477 51.576 163.541 51.32H162.101C162.037 51.048 162.005 50.728 162.005 50.36C162.005 49.976 162.037 49.656 162.101 49.4H164.501C164.565 49.656 164.597 49.976 164.597 50.36C164.597 50.728 164.565 51.048 164.501 51.32H165.461C165.397 51.048 165.365 50.728 165.365 50.36C165.365 49.976 165.397 49.656 165.461 49.4H169.061C169.125 49.656 169.157 49.976 169.157 50.36C169.157 50.728 169.125 51.048 169.061 51.32H169.781ZM179.39 57.08C179.454 57.336 179.486 57.656 179.486 58.04C179.486 58.408 179.454 58.728 179.39 59H177.47C177.406 58.728 177.374 58.408 177.374 58.04C177.374 57.656 177.406 57.336 177.47 57.08H176.51C176.446 56.808 176.414 56.488 176.414 56.12C176.414 55.736 176.446 55.416 176.51 55.16H173.63C173.694 55.416 173.726 55.736 173.726 56.12C173.726 56.488 173.694 56.808 173.63 57.08H176.51C176.574 57.336 176.606 57.656 176.606 58.04C176.606 58.408 176.574 58.728 176.51 59H172.67C172.606 58.728 172.574 58.408 172.574 58.04C172.574 57.656 172.606 57.336 172.67 57.08H171.71C171.646 56.808 171.614 56.488 171.614 56.12C171.614 55.736 171.646 55.416 171.71 55.16H172.67C172.606 54.888 172.574 54.568 172.574 54.2C172.574 53.816 172.606 53.496 172.67 53.24H176.51C176.446 52.968 176.414 52.648 176.414 52.28C176.414 51.896 176.446 51.576 176.51 51.32H173.15C173.086 51.048 173.054 50.728 173.054 50.36C173.054 49.976 173.086 49.656 173.15 49.4H177.47C177.534 49.656 177.566 49.976 177.566 50.36C177.566 50.728 177.534 51.048 177.47 51.32H178.43C178.494 51.576 178.526 51.896 178.526 52.28C178.526 52.648 178.494 52.968 178.43 53.24C178.494 53.496 178.526 53.816 178.526 54.2C178.526 54.568 178.494 54.888 178.43 55.16C178.494 55.416 178.526 55.736 178.526 56.12C178.526 56.488 178.494 56.808 178.43 57.08H179.39ZM188.039 57.08C188.103 57.336 188.135 57.656 188.135 58.04C188.135 58.408 188.103 58.728 188.039 59H184.199C184.135 58.728 184.103 58.408 184.103 58.04C184.103 57.656 184.135 57.336 184.199 57.08H183.239C183.175 56.808 183.143 56.488 183.143 56.12C183.143 55.736 183.175 55.416 183.239 55.16C183.175 54.888 183.143 54.568 183.143 54.2C183.143 53.816 183.175 53.496 183.239 53.24C183.175 52.968 183.143 52.648 183.143 52.28C183.143 51.896 183.175 51.576 183.239 51.32H181.319C181.255 51.048 181.223 50.728 181.223 50.36C181.223 49.976 181.255 49.656 181.319 49.4H183.239C183.175 49.128 183.143 48.808 183.143 48.44C183.143 48.056 183.175 47.736 183.239 47.48C183.175 47.208 183.143 46.888 183.143 46.52C183.143 46.136 183.175 45.816 183.239 45.56H185.159C185.223 45.816 185.255 46.136 185.255 46.52C185.255 46.888 185.223 47.208 185.159 47.48C185.223 47.736 185.255 48.056 185.255 48.44C185.255 48.808 185.223 49.128 185.159 49.4H188.039C188.103 49.656 188.135 49.976 188.135 50.36C188.135 50.728 188.103 51.048 188.039 51.32H185.159C185.223 51.576 185.255 51.896 185.255 52.28C185.255 52.648 185.223 52.968 185.159 53.24C185.223 53.496 185.255 53.816 185.255 54.2C185.255 54.568 185.223 54.888 185.159 55.16C185.223 55.416 185.255 55.736 185.255 56.12C185.255 56.488 185.223 56.808 185.159 57.08H188.039ZM193.809 47.48C193.745 47.208 193.713 46.888 193.713 46.52C193.713 46.136 193.745 45.816 193.809 45.56H195.729C195.793 45.816 195.825 46.136 195.825 46.52C195.825 46.888 195.793 47.208 195.729 47.48H193.809ZM197.649 57.08C197.713 57.336 197.745 57.656 197.745 58.04C197.745 58.408 197.713 58.728 197.649 59H191.889C191.825 58.728 191.793 58.408 191.793 58.04C191.793 57.656 191.825 57.336 191.889 57.08H193.809C193.745 56.808 193.713 56.488 193.713 56.12C193.713 55.736 193.745 55.416 193.809 55.16C193.745 54.888 193.713 54.568 193.713 54.2C193.713 53.816 193.745 53.496 193.809 53.24C193.745 52.968 193.713 52.648 193.713 52.28C193.713 51.896 193.745 51.576 193.809 51.32H192.369C192.305 51.048 192.273 50.728 192.273 50.36C192.273 49.976 192.305 49.656 192.369 49.4H195.729C195.793 49.656 195.825 49.976 195.825 50.36C195.825 50.728 195.793 51.048 195.729 51.32C195.793 51.576 195.825 51.896 195.825 52.28C195.825 52.648 195.793 52.968 195.729 53.24C195.793 53.496 195.825 53.816 195.825 54.2C195.825 54.568 195.793 54.888 195.729 55.16C195.793 55.416 195.825 55.736 195.825 56.12C195.825 56.488 195.793 56.808 195.729 57.08H197.649ZM208.314 50.36C208.314 50.728 208.282 51.048 208.218 51.32H207.498C207.562 51.576 207.594 51.896 207.594 52.28C207.594 52.648 207.562 52.968 207.498 53.24H206.778C206.842 53.496 206.874 53.816 206.874 54.2C206.874 54.568 206.842 54.888 206.778 55.16H206.298C206.362 55.416 206.394 55.736 206.394 56.12C206.394 56.488 206.362 56.808 206.298 57.08H205.338C205.402 57.336 205.434 57.656 205.434 58.04C205.434 58.408 205.402 58.728 205.338 59H203.418C203.354 58.728 203.322 58.408 203.322 58.04C203.322 57.656 203.354 57.336 203.418 57.08H202.458C202.394 56.808 202.362 56.488 202.362 56.12C202.362 55.736 202.394 55.416 202.458 55.16H201.978C201.914 54.888 201.882 54.568 201.882 54.2C201.882 53.816 201.914 53.496 201.978 53.24H201.258C201.194 52.968 201.162 52.648 201.162 52.28C201.162 51.896 201.194 51.576 201.258 51.32H200.538C200.474 51.048 200.442 50.728 200.442 50.36C200.442 49.976 200.474 49.656 200.538 49.4H202.458C202.522 49.656 202.554 49.976 202.554 50.36C202.554 50.728 202.522 51.048 202.458 51.32H203.178C203.242 51.576 203.274 51.896 203.274 52.28C203.274 52.648 203.242 52.968 203.178 53.24H203.898C203.962 53.496 203.994 53.816 203.994 54.2C203.994 54.568 203.962 54.888 203.898 55.16H204.858C204.794 54.888 204.762 54.568 204.762 54.2C204.762 53.816 204.794 53.496 204.858 53.24H205.578C205.514 52.968 205.482 52.648 205.482 52.28C205.482 51.896 205.514 51.576 205.578 51.32H206.298C206.234 51.048 206.202 50.728 206.202 50.36C206.202 49.976 206.234 49.656 206.298 49.4H208.218C208.282 49.656 208.314 49.976 208.314 50.36ZM217.924 52.28C217.924 52.648 217.892 52.968 217.828 53.24C217.892 53.496 217.924 53.816 217.924 54.2C217.924 54.568 217.892 54.888 217.828 55.16H212.788C212.852 55.416 212.884 55.736 212.884 56.12C212.884 56.488 212.852 56.808 212.788 57.08H216.868C216.932 57.336 216.964 57.656 216.964 58.04C216.964 58.408 216.932 58.728 216.868 59H212.068C212.004 58.728 211.972 58.408 211.972 58.04C211.972 57.656 212.004 57.336 212.068 57.08H210.868C210.803 56.808 210.771 56.488 210.771 56.12C210.771 55.736 210.803 55.416 210.868 55.16H210.148C210.084 54.888 210.052 54.568 210.052 54.2C210.052 53.816 210.084 53.496 210.148 53.24H210.868C210.803 52.968 210.771 52.648 210.771 52.28C210.771 51.896 210.803 51.576 210.868 51.32H212.068C212.004 51.048 211.972 50.728 211.972 50.36C211.972 49.976 212.004 49.656 212.068 49.4H216.868C216.932 49.656 216.964 49.976 216.964 50.36C216.964 50.728 216.932 51.048 216.868 51.32H217.828C217.892 51.576 217.924 51.896 217.924 52.28ZM215.908 53.24C215.844 52.968 215.812 52.648 215.812 52.28C215.812 51.896 215.844 51.576 215.908 51.32H212.788C212.852 51.576 212.884 51.896 212.884 52.28C212.884 52.648 212.852 52.968 212.788 53.24H215.908ZM237.046 53.24C237.11 53.496 237.142 53.816 237.142 54.2C237.142 54.568 237.11 54.888 237.046 55.16C237.11 55.416 237.142 55.736 237.142 56.12C237.142 56.488 237.11 56.808 237.046 57.08H236.086C236.15 57.336 236.182 57.656 236.182 58.04C236.182 58.408 236.15 58.728 236.086 59H230.326C230.262 58.728 230.23 58.408 230.23 58.04C230.23 57.656 230.262 57.336 230.326 57.08H229.366C229.302 56.808 229.27 56.488 229.27 56.12C229.27 55.736 229.302 55.416 229.366 55.16H231.286C231.35 55.416 231.382 55.736 231.382 56.12C231.382 56.488 231.35 56.808 231.286 57.08H235.126C235.062 56.808 235.03 56.488 235.03 56.12C235.03 55.736 235.062 55.416 235.126 55.16C235.062 54.888 235.03 54.568 235.03 54.2C235.03 53.816 235.062 53.496 235.126 53.24H230.326C230.262 52.968 230.23 52.648 230.23 52.28C230.23 51.896 230.262 51.576 230.326 51.32H229.366C229.302 51.048 229.27 50.728 229.27 50.36C229.27 49.976 229.302 49.656 229.366 49.4C229.302 49.128 229.27 48.808 229.27 48.44C229.27 48.056 229.302 47.736 229.366 47.48H230.326C230.262 47.208 230.23 46.888 230.23 46.52C230.23 46.136 230.262 45.816 230.326 45.56H236.086C236.15 45.816 236.182 46.136 236.182 46.52C236.182 46.888 236.15 47.208 236.086 47.48H237.046C237.11 47.736 237.142 48.056 237.142 48.44C237.142 48.808 237.11 49.128 237.046 49.4H235.126C235.062 49.128 235.03 48.808 235.03 48.44C235.03 48.056 235.062 47.736 235.126 47.48H231.286C231.35 47.736 231.382 48.056 231.382 48.44C231.382 48.808 231.35 49.128 231.286 49.4C231.35 49.656 231.382 49.976 231.382 50.36C231.382 50.728 231.35 51.048 231.286 51.32H236.086C236.15 51.576 236.182 51.896 236.182 52.28C236.182 52.648 236.15 52.968 236.086 53.24H237.046ZM246.752 50.36C246.752 50.728 246.72 51.048 246.656 51.32H245.936C246 51.576 246.032 51.896 246.032 52.28C246.032 52.648 246 52.968 245.936 53.24H245.216C245.28 53.496 245.312 53.816 245.312 54.2C245.312 54.568 245.28 54.888 245.216 55.16H244.736C244.8 55.416 244.832 55.736 244.832 56.12C244.832 56.488 244.8 56.808 244.736 57.08H244.016C244.08 57.336 244.112 57.656 244.112 58.04C244.112 58.408 244.08 58.728 244.016 59H243.536C243.6 59.256 243.632 59.576 243.632 59.96C243.632 60.328 243.6 60.648 243.536 60.92H242.576C242.64 61.176 242.672 61.496 242.672 61.88C242.672 62.248 242.64 62.568 242.576 62.84H239.696C239.632 62.568 239.6 62.248 239.6 61.88C239.6 61.496 239.632 61.176 239.696 60.92H241.616C241.552 60.648 241.52 60.328 241.52 59.96C241.52 59.576 241.552 59.256 241.616 59C241.552 58.728 241.52 58.408 241.52 58.04C241.52 57.656 241.552 57.336 241.616 57.08H240.656C240.592 56.808 240.56 56.488 240.56 56.12C240.56 55.736 240.592 55.416 240.656 55.16H240.176C240.112 54.888 240.08 54.568 240.08 54.2C240.08 53.816 240.112 53.496 240.176 53.24H239.456C239.392 52.968 239.36 52.648 239.36 52.28C239.36 51.896 239.392 51.576 239.456 51.32H238.736C238.672 51.048 238.64 50.728 238.64 50.36C238.64 49.976 238.672 49.656 238.736 49.4H240.656C240.72 49.656 240.752 49.976 240.752 50.36C240.752 50.728 240.72 51.048 240.656 51.32H241.376C241.44 51.576 241.472 51.896 241.472 52.28C241.472 52.648 241.44 52.968 241.376 53.24H242.096C242.16 53.496 242.192 53.816 242.192 54.2C242.192 54.568 242.16 54.888 242.096 55.16C242.16 55.416 242.192 55.736 242.192 56.12C242.192 56.488 242.16 56.808 242.096 57.08H242.816C242.752 56.808 242.72 56.488 242.72 56.12C242.72 55.736 242.752 55.416 242.816 55.16H243.296C243.232 54.888 243.2 54.568 243.2 54.2C243.2 53.816 243.232 53.496 243.296 53.24H244.016C243.952 52.968 243.92 52.648 243.92 52.28C243.92 51.896 243.952 51.576 244.016 51.32H244.736C244.672 51.048 244.64 50.728 244.64 50.36C244.64 49.976 244.672 49.656 244.736 49.4H246.656C246.72 49.656 246.752 49.976 246.752 50.36ZM255.881 56.12C255.881 56.488 255.849 56.808 255.785 57.08H254.825C254.889 57.336 254.921 57.656 254.921 58.04C254.921 58.408 254.889 58.728 254.825 59H249.545C249.481 58.728 249.449 58.408 249.449 58.04C249.449 57.656 249.481 57.336 249.545 57.08H253.865C253.801 56.808 253.769 56.488 253.769 56.12C253.769 55.736 253.801 55.416 253.865 55.16H250.025C249.961 54.888 249.929 54.568 249.929 54.2C249.929 53.816 249.961 53.496 250.025 53.24H249.065C249.001 52.968 248.969 52.648 248.969 52.28C248.969 51.896 249.001 51.576 249.065 51.32H250.025C249.961 51.048 249.929 50.728 249.929 50.36C249.929 49.976 249.961 49.656 250.025 49.4H255.305C255.369 49.656 255.401 49.976 255.401 50.36C255.401 50.728 255.369 51.048 255.305 51.32H250.985C251.049 51.576 251.081 51.896 251.081 52.28C251.081 52.648 251.049 52.968 250.985 53.24H254.825C254.889 53.496 254.921 53.816 254.921 54.2C254.921 54.568 254.889 54.888 254.825 55.16H255.785C255.849 55.416 255.881 55.736 255.881 56.12ZM264.914 57.08C264.978 57.336 265.01 57.656 265.01 58.04C265.01 58.408 264.978 58.728 264.914 59H261.074C261.01 58.728 260.978 58.408 260.978 58.04C260.978 57.656 261.01 57.336 261.074 57.08H260.114C260.05 56.808 260.018 56.488 260.018 56.12C260.018 55.736 260.05 55.416 260.114 55.16C260.05 54.888 260.018 54.568 260.018 54.2C260.018 53.816 260.05 53.496 260.114 53.24C260.05 52.968 260.018 52.648 260.018 52.28C260.018 51.896 260.05 51.576 260.114 51.32H258.194C258.13 51.048 258.098 50.728 258.098 50.36C258.098 49.976 258.13 49.656 258.194 49.4H260.114C260.05 49.128 260.018 48.808 260.018 48.44C260.018 48.056 260.05 47.736 260.114 47.48C260.05 47.208 260.018 46.888 260.018 46.52C260.018 46.136 260.05 45.816 260.114 45.56H262.034C262.098 45.816 262.13 46.136 262.13 46.52C262.13 46.888 262.098 47.208 262.034 47.48C262.098 47.736 262.13 48.056 262.13 48.44C262.13 48.808 262.098 49.128 262.034 49.4H264.914C264.978 49.656 265.01 49.976 265.01 50.36C265.01 50.728 264.978 51.048 264.914 51.32H262.034C262.098 51.576 262.13 51.896 262.13 52.28C262.13 52.648 262.098 52.968 262.034 53.24C262.098 53.496 262.13 53.816 262.13 54.2C262.13 54.568 262.098 54.888 262.034 55.16C262.098 55.416 262.13 55.736 262.13 56.12C262.13 56.488 262.098 56.808 262.034 57.08H264.914ZM275.58 52.28C275.58 52.648 275.548 52.968 275.484 53.24C275.548 53.496 275.58 53.816 275.58 54.2C275.58 54.568 275.548 54.888 275.484 55.16H270.444C270.508 55.416 270.54 55.736 270.54 56.12C270.54 56.488 270.508 56.808 270.444 57.08H274.524C274.588 57.336 274.62 57.656 274.62 58.04C274.62 58.408 274.588 58.728 274.524 59H269.724C269.66 58.728 269.628 58.408 269.628 58.04C269.628 57.656 269.66 57.336 269.724 57.08H268.524C268.46 56.808 268.428 56.488 268.428 56.12C268.428 55.736 268.46 55.416 268.524 55.16H267.804C267.74 54.888 267.708 54.568 267.708 54.2C267.708 53.816 267.74 53.496 267.804 53.24H268.524C268.46 52.968 268.428 52.648 268.428 52.28C268.428 51.896 268.46 51.576 268.524 51.32H269.724C269.66 51.048 269.628 50.728 269.628 50.36C269.628 49.976 269.66 49.656 269.724 49.4H274.524C274.588 49.656 274.62 49.976 274.62 50.36C274.62 50.728 274.588 51.048 274.524 51.32H275.484C275.548 51.576 275.58 51.896 275.58 52.28ZM273.564 53.24C273.5 52.968 273.468 52.648 273.468 52.28C273.468 51.896 273.5 51.576 273.564 51.32H270.444C270.508 51.576 270.54 51.896 270.54 52.28C270.54 52.648 270.508 52.968 270.444 53.24H273.564ZM278.709 50.36C278.709 50.728 278.677 51.048 278.613 51.32H279.333C279.397 51.576 279.429 51.896 279.429 52.28C279.429 52.648 279.397 52.968 279.333 53.24C279.397 53.496 279.429 53.816 279.429 54.2C279.429 54.568 279.397 54.888 279.333 55.16C279.397 55.416 279.429 55.736 279.429 56.12C279.429 56.488 279.397 56.808 279.333 57.08C279.397 57.336 279.429 57.656 279.429 58.04C279.429 58.408 279.397 58.728 279.333 59H277.413C277.349 58.728 277.317 58.408 277.317 58.04C277.317 57.656 277.349 57.336 277.413 57.08C277.349 56.808 277.317 56.488 277.317 56.12C277.317 55.736 277.349 55.416 277.413 55.16C277.349 54.888 277.317 54.568 277.317 54.2C277.317 53.816 277.349 53.496 277.413 53.24C277.349 52.968 277.317 52.648 277.317 52.28C277.317 51.896 277.349 51.576 277.413 51.32C277.349 51.048 277.317 50.728 277.317 50.36C277.317 49.976 277.349 49.656 277.413 49.4H278.613C278.677 49.656 278.709 49.976 278.709 50.36ZM281.349 50.36C281.349 50.728 281.317 51.048 281.253 51.32H281.973C282.037 51.576 282.069 51.896 282.069 52.28C282.069 52.648 282.037 52.968 281.973 53.24C282.037 53.496 282.069 53.816 282.069 54.2C282.069 54.568 282.037 54.888 281.973 55.16C282.037 55.416 282.069 55.736 282.069 56.12C282.069 56.488 282.037 56.808 281.973 57.08C282.037 57.336 282.069 57.656 282.069 58.04C282.069 58.408 282.037 58.728 281.973 59H280.533C280.469 58.728 280.437 58.408 280.437 58.04C280.437 57.656 280.469 57.336 280.533 57.08C280.469 56.808 280.437 56.488 280.437 56.12C280.437 55.736 280.469 55.416 280.533 55.16C280.469 54.888 280.437 54.568 280.437 54.2C280.437 53.816 280.469 53.496 280.533 53.24C280.469 52.968 280.437 52.648 280.437 52.28C280.437 51.896 280.469 51.576 280.533 51.32H279.333C279.269 51.048 279.237 50.728 279.237 50.36C279.237 49.976 279.269 49.656 279.333 49.4H281.253C281.317 49.656 281.349 49.976 281.349 50.36ZM285.093 53.24C285.157 53.496 285.189 53.816 285.189 54.2C285.189 54.568 285.157 54.888 285.093 55.16C285.157 55.416 285.189 55.736 285.189 56.12C285.189 56.488 285.157 56.808 285.093 57.08C285.157 57.336 285.189 57.656 285.189 58.04C285.189 58.408 285.157 58.728 285.093 59H283.173C283.109 58.728 283.077 58.408 283.077 58.04C283.077 57.656 283.109 57.336 283.173 57.08C283.109 56.808 283.077 56.488 283.077 56.12C283.077 55.736 283.109 55.416 283.173 55.16C283.109 54.888 283.077 54.568 283.077 54.2C283.077 53.816 283.109 53.496 283.173 53.24C283.109 52.968 283.077 52.648 283.077 52.28C283.077 51.896 283.109 51.576 283.173 51.32H281.973C281.909 51.048 281.877 50.728 281.877 50.36C281.877 49.976 281.909 49.656 281.973 49.4H284.133C284.197 49.656 284.229 49.976 284.229 50.36C284.229 50.728 284.197 51.048 284.133 51.32H285.093C285.157 51.576 285.189 51.896 285.189 52.28C285.189 52.648 285.157 52.968 285.093 53.24ZM294.319 56.12C294.319 56.488 294.287 56.808 294.223 57.08H293.263C293.327 57.336 293.359 57.656 293.359 58.04C293.359 58.408 293.327 58.728 293.263 59H287.983C287.919 58.728 287.887 58.408 287.887 58.04C287.887 57.656 287.919 57.336 287.983 57.08H292.303C292.239 56.808 292.207 56.488 292.207 56.12C292.207 55.736 292.239 55.416 292.303 55.16H288.463C288.399 54.888 288.367 54.568 288.367 54.2C288.367 53.816 288.399 53.496 288.463 53.24H287.503C287.439 52.968 287.407 52.648 287.407 52.28C287.407 51.896 287.439 51.576 287.503 51.32H288.463C288.399 51.048 288.367 50.728 288.367 50.36C288.367 49.976 288.399 49.656 288.463 49.4H293.743C293.807 49.656 293.839 49.976 293.839 50.36C293.839 50.728 293.807 51.048 293.743 51.32H289.423C289.487 51.576 289.519 51.896 289.519 52.28C289.519 52.648 289.487 52.968 289.423 53.24H293.263C293.327 53.496 293.359 53.816 293.359 54.2C293.359 54.568 293.327 54.888 293.263 55.16H294.223C294.287 55.416 294.319 55.736 294.319 56.12ZM301.768 56.12C301.768 56.488 301.736 56.808 301.672 57.08C301.736 57.336 301.768 57.656 301.768 58.04C301.768 58.408 301.736 58.728 301.672 59H299.272C299.208 58.728 299.176 58.408 299.176 58.04C299.176 57.656 299.208 57.336 299.272 57.08C299.208 56.808 299.176 56.488 299.176 56.12C299.176 55.736 299.208 55.416 299.272 55.16H301.672C301.736 55.416 301.768 55.736 301.768 56.12Z" fill="white"/>
</svg>
