<svg width="78" height="107" viewBox="0 0 78 107" fill="none" xmlns="http://www.w3.org/2000/svg">
<path fill-rule="evenodd" clip-rule="evenodd" d="M48.3462 5.13834e-06V13.4851C48.3462 21.307 54.6525 27.6479 62.4318 27.6479H68.675C73.8254 27.6479 78 31.3226 78 35.8558V98.792C78 103.325 73.8254 107 68.675 107H9.32493C4.17456 107 0 103.325 0 98.792V35.8558C0 31.3226 4.17456 27.6479 9.32493 27.6479H17.574C25.3532 27.6479 31.6595 21.307 31.6595 13.4851V5.13834e-06C31.6595 5.13834e-06 43.7515 -6.42292e-06 48.3462 5.13834e-06Z" fill="black"/>
<path d="M27.9897 48.8731C28.1162 49.3819 28.1795 50.018 28.1795 50.7813C28.1795 51.5128 28.1162 52.1489 27.9897 52.6895C28.1162 53.1984 28.1795 53.8345 28.1795 54.5978C28.1795 55.3293 28.1162 55.9654 27.9897 56.506C28.1162 57.0149 28.1795 57.651 28.1795 58.4143C28.1795 59.1458 28.1162 59.7819 27.9897 60.3225H26.0919C26.2184 60.8314 26.2816 61.4675 26.2816 62.2308C26.2816 62.9623 26.2184 63.5983 26.0919 64.139H16.6027C16.4761 63.5983 16.4129 62.9623 16.4129 62.2308C16.4129 61.4675 16.4761 60.8314 16.6027 60.3225H14.7048C14.5783 59.7819 14.515 59.1458 14.515 58.4143C14.515 57.651 14.5783 57.0149 14.7048 56.506H12.807C12.6804 55.9654 12.6172 55.3293 12.6172 54.5978C12.6172 53.8345 12.6804 53.1984 12.807 52.6895C12.6804 52.1489 12.6172 51.5128 12.6172 50.7813C12.6172 50.018 12.6804 49.3819 12.807 48.8731C12.6804 48.3324 12.6172 47.6963 12.6172 46.9648C12.6172 46.2015 12.6804 45.5654 12.807 45.0566H14.7048C14.5783 44.5159 14.515 43.8798 14.515 43.1483C14.515 42.385 14.5783 41.7489 14.7048 41.2401H16.6027C16.4761 40.6994 16.4129 40.0633 16.4129 39.3318C16.4129 38.5685 16.4761 37.9324 16.6027 37.4236H26.0919C26.2184 37.9324 26.2816 38.5685 26.2816 39.3318C26.2816 40.0633 26.2184 40.6994 26.0919 41.2401H27.9897C28.1162 41.7489 28.1795 42.385 28.1795 43.1483C28.1795 43.8798 28.1162 44.5159 27.9897 45.0566H24.194C24.0675 44.5159 24.0042 43.8798 24.0042 43.1483C24.0042 42.385 24.0675 41.7489 24.194 41.2401H18.5005C18.627 41.7489 18.6903 42.385 18.6903 43.1483C18.6903 43.8798 18.627 44.5159 18.5005 45.0566H16.6027C16.7292 45.5654 16.7924 46.2015 16.7924 46.9648C16.7924 47.6963 16.7292 48.3324 16.6027 48.8731C16.7292 49.3819 16.7924 50.018 16.7924 50.7813C16.7924 51.5128 16.7292 52.1489 16.6027 52.6895C16.7292 53.1984 16.7924 53.8345 16.7924 54.5978C16.7924 55.3293 16.7292 55.9654 16.6027 56.506H18.5005C18.627 57.0149 18.6903 57.651 18.6903 58.4143C18.6903 59.1458 18.627 59.7819 18.5005 60.3225H24.194C24.0675 59.7819 24.0042 59.1458 24.0042 58.4143C24.0042 57.651 24.0675 57.0149 24.194 56.506C24.0675 55.9654 24.0042 55.3293 24.0042 54.5978C24.0042 53.8345 24.0675 53.1984 24.194 52.6895H21.3473C21.2207 52.1489 21.1575 51.5128 21.1575 50.7813C21.1575 50.018 21.2207 49.3819 21.3473 48.8731H27.9897Z" fill="white"/>
<path d="M44.1399 48.8731C44.2664 49.3819 44.3297 50.018 44.3297 50.7813C44.3297 51.5128 44.2664 52.1489 44.1399 52.6895H34.6507C34.5242 52.1489 34.4609 51.5128 34.4609 50.7813C34.4609 50.018 34.5242 49.3819 34.6507 48.8731H44.1399Z" fill="white"/>
<path d="M27.9897 82.5059C28.1162 83.0147 28.1795 83.6508 28.1795 84.4141C28.1795 85.1456 28.1162 85.7817 27.9897 86.3224C28.1162 86.8312 28.1795 87.4673 28.1795 88.2306C28.1795 88.9621 28.1162 89.5982 27.9897 90.1389H26.0919C26.2184 90.6477 26.2816 91.2838 26.2816 92.0471C26.2816 92.7786 26.2184 93.4147 26.0919 93.9553H14.7048C14.5783 93.4147 14.515 92.7786 14.515 92.0471C14.515 91.2838 14.5783 90.6477 14.7048 90.1389H12.807C12.6804 89.5982 12.6172 88.9621 12.6172 88.2306C12.6172 87.4673 12.6804 86.8312 12.807 86.3224H16.6027C16.7292 86.8312 16.7924 87.4673 16.7924 88.2306C16.7924 88.9621 16.7292 89.5982 16.6027 90.1389H24.194C24.0675 89.5982 24.0042 88.9621 24.0042 88.2306C24.0042 87.4673 24.0675 86.8312 24.194 86.3224C24.0675 85.7817 24.0042 85.1456 24.0042 84.4141C24.0042 83.6508 24.0675 83.0147 24.194 82.5059H14.7048C14.5783 81.9652 14.515 81.3291 14.515 80.5976C14.515 79.8343 14.5783 79.1982 14.7048 78.6894H12.807C12.6804 78.1487 12.6172 77.5126 12.6172 76.7811C12.6172 76.0178 12.6804 75.3818 12.807 74.8729C12.6804 74.3322 12.6172 73.6961 12.6172 72.9646C12.6172 72.2014 12.6804 71.5653 12.807 71.0564H14.7048C14.5783 70.5157 14.515 69.8797 14.515 69.1482C14.515 68.3849 14.5783 67.7488 14.7048 67.2399H26.0919C26.2184 67.7488 26.2816 68.3849 26.2816 69.1482C26.2816 69.8797 26.2184 70.5157 26.0919 71.0564H27.9897C28.1162 71.5653 28.1795 72.2014 28.1795 72.9646C28.1795 73.6961 28.1162 74.3322 27.9897 74.8729H24.194C24.0675 74.3322 24.0042 73.6961 24.0042 72.9646C24.0042 72.2014 24.0675 71.5653 24.194 71.0564H16.6027C16.7292 71.5653 16.7924 72.2014 16.7924 72.9646C16.7924 73.6961 16.7292 74.3322 16.6027 74.8729C16.7292 75.3818 16.7924 76.0178 16.7924 76.7811C16.7924 77.5126 16.7292 78.1487 16.6027 78.6894H26.0919C26.2184 79.1982 26.2816 79.8343 26.2816 80.5976C26.2816 81.3291 26.2184 81.9652 26.0919 82.5059H27.9897Z" fill="white"/>
<path d="M44.1399 78.6894C44.2664 79.1982 44.3297 79.8343 44.3297 80.5976C44.3297 81.3291 44.2664 81.9652 44.1399 82.5059H34.6507C34.5242 81.9652 34.4609 81.3291 34.4609 80.5976C34.4609 79.8343 34.5242 79.1982 34.6507 78.6894H44.1399Z" fill="white"/>
<path d="M66.1734 88.2306C66.1734 88.9621 66.1101 89.5982 65.9836 90.1389C66.1101 90.6477 66.1734 91.2838 66.1734 92.0471C66.1734 92.7786 66.1101 93.4147 65.9836 93.9553H62.1879C62.0614 93.4147 61.9981 92.7786 61.9981 92.0471C61.9981 91.2838 62.0614 90.6477 62.1879 90.1389C62.0614 89.5982 61.9981 88.9621 61.9981 88.2306C61.9981 87.4673 62.0614 86.8312 62.1879 86.3224H54.5965C54.7231 86.8312 54.7863 87.4673 54.7863 88.2306C54.7863 88.9621 54.7231 89.5982 54.5965 90.1389C54.7231 90.6477 54.7863 91.2838 54.7863 92.0471C54.7863 92.7786 54.7231 93.4147 54.5965 93.9553H50.8009C50.6743 93.4147 50.6111 92.7786 50.6111 92.0471C50.6111 91.2838 50.6743 90.6477 50.8009 90.1389C50.6743 89.5982 50.6111 88.9621 50.6111 88.2306C50.6111 87.4673 50.6743 86.8312 50.8009 86.3224H52.2242C52.0977 85.7817 52.0345 85.1456 52.0345 84.4141C52.0345 83.6508 52.0977 83.0147 52.2242 82.5059C52.0977 81.9652 52.0345 81.3291 52.0345 80.5976C52.0345 79.8343 52.0977 79.1982 52.2242 78.6894H53.1732C53.0466 78.1487 52.9834 77.5126 52.9834 76.7811C52.9834 76.0178 53.0466 75.3818 53.1732 74.8729H54.5965C54.47 74.3322 54.4068 73.6961 54.4068 72.9646C54.4068 72.2014 54.47 71.5653 54.5965 71.0564H55.5455C55.4189 70.5157 55.3557 69.8797 55.3557 69.1482C55.3557 68.3849 55.4189 67.7488 55.5455 67.2399H61.239C61.3655 67.7488 61.4288 68.3849 61.4288 69.1482C61.4288 69.8797 61.3655 70.5157 61.239 71.0564H62.1879C62.3144 71.5653 62.3777 72.2014 62.3777 72.9646C62.3777 73.6961 62.3144 74.3322 62.1879 74.8729H63.6113C63.7378 75.3818 63.8011 76.0178 63.8011 76.7811C63.8011 77.5126 63.7378 78.1487 63.6113 78.6894H64.5602C64.6867 79.1982 64.75 79.8343 64.75 80.5976C64.75 81.3291 64.6867 81.9652 64.5602 82.5059C64.6867 83.0147 64.75 83.6508 64.75 84.4141C64.75 85.1456 64.6867 85.7817 64.5602 86.3224H65.9836C66.1101 86.8312 66.1734 87.4673 66.1734 88.2306ZM60.7645 82.5059C60.638 81.9652 60.5747 81.3291 60.5747 80.5976C60.5747 79.8343 60.638 79.1982 60.7645 78.6894H59.8156C59.6891 78.1487 59.6258 77.5126 59.6258 76.7811C59.6258 76.0178 59.6891 75.3818 59.8156 74.8729H56.9688C57.0954 75.3818 57.1586 76.0178 57.1586 76.7811C57.1586 77.5126 57.0954 78.1487 56.9688 78.6894H56.0199C56.1465 79.1982 56.2097 79.8343 56.2097 80.5976C56.2097 81.3291 56.1465 81.9652 56.0199 82.5059H60.7645Z" fill="white"/>
</svg>
