<svg width="40" height="40" viewBox="0 0 40 40" fill="none" xmlns="http://www.w3.org/2000/svg">
<mask id="path-1-inside-1_597_2141" fill="white">
<path fill-rule="evenodd" clip-rule="evenodd" d="M31.3369 26.3308C32.9399 23.7162 33.8652 20.6329 33.8652 17.3311C33.8652 7.88061 26.2842 0.219482 16.9326 0.219482C7.58099 0.219482 0 7.88061 0 17.3311C0 26.7816 7.58099 34.4427 16.9326 34.4427C20.6268 34.4427 24.0447 33.2472 26.8282 31.2181L33.9418 38.4069C35.232 39.7108 37.324 39.7108 38.6142 38.4069C39.9045 37.103 39.9045 34.9889 38.6142 33.685L31.3369 26.3308ZM16.8223 31.2195C24.4734 31.2195 30.6759 24.9515 30.6759 17.2195C30.6759 9.4875 24.4734 3.21948 16.8223 3.21948C9.1712 3.21948 2.96875 9.4875 2.96875 17.2195C2.96875 24.9515 9.1712 31.2195 16.8223 31.2195Z"/>
</mask>
<path fill-rule="evenodd" clip-rule="evenodd" d="M31.3369 26.3308C32.9399 23.7162 33.8652 20.6329 33.8652 17.3311C33.8652 7.88061 26.2842 0.219482 16.9326 0.219482C7.58099 0.219482 0 7.88061 0 17.3311C0 26.7816 7.58099 34.4427 16.9326 34.4427C20.6268 34.4427 24.0447 33.2472 26.8282 31.2181L33.9418 38.4069C35.232 39.7108 37.324 39.7108 38.6142 38.4069C39.9045 37.103 39.9045 34.9889 38.6142 33.685L31.3369 26.3308ZM16.8223 31.2195C24.4734 31.2195 30.6759 24.9515 30.6759 17.2195C30.6759 9.4875 24.4734 3.21948 16.8223 3.21948C9.1712 3.21948 2.96875 9.4875 2.96875 17.2195C2.96875 24.9515 9.1712 31.2195 16.8223 31.2195Z" fill="black"/>
<path d="M31.3369 26.3308L30.4844 25.8081L30.0745 26.4767L30.6261 27.0342L31.3369 26.3308ZM26.8282 31.2181L27.539 30.5147L26.934 29.9034L26.2391 30.41L26.8282 31.2181ZM33.9418 38.4069L34.6526 37.7035L33.9418 38.4069ZM38.6142 38.4069L39.325 39.1102L38.6142 38.4069ZM38.6142 33.685L37.9034 34.3884L38.6142 33.685ZM32.8652 17.3311C32.8652 20.4437 31.9934 23.3468 30.4844 25.8081L32.1894 26.8535C33.8863 24.0857 34.8652 20.8221 34.8652 17.3311H32.8652ZM16.9326 1.21948C25.7221 1.21948 32.8652 8.42296 32.8652 17.3311H34.8652C34.8652 7.33827 26.8464 -0.780518 16.9326 -0.780518V1.21948ZM1 17.3311C1 8.42296 8.14316 1.21948 16.9326 1.21948V-0.780518C7.01882 -0.780518 -1 7.33827 -1 17.3311H1ZM16.9326 33.4427C8.14316 33.4427 1 26.2392 1 17.3311H-1C-1 27.3239 7.01882 35.4427 16.9326 35.4427V33.4427ZM26.2391 30.41C23.6204 32.319 20.4073 33.4427 16.9326 33.4427V35.4427C20.8463 35.4427 24.4691 34.1753 27.4172 32.0261L26.2391 30.41ZM34.6526 37.7035L27.539 30.5147L26.1173 31.9214L33.2309 39.1102L34.6526 37.7035ZM37.9034 37.7035C37.0045 38.6119 35.5515 38.6119 34.6526 37.7035L33.2309 39.1102C34.9126 40.8096 37.6434 40.8096 39.325 39.1102L37.9034 37.7035ZM37.9034 34.3884C38.8081 35.3026 38.8081 36.7892 37.9034 37.7035L39.325 39.1102C41.0009 37.4167 41.0009 34.6752 39.325 32.9816L37.9034 34.3884ZM30.6261 27.0342L37.9034 34.3884L39.325 32.9816L32.0477 25.6274L30.6261 27.0342ZM29.6759 17.2195C29.6759 24.4091 23.9112 30.2195 16.8223 30.2195V32.2195C25.0356 32.2195 31.6759 25.4938 31.6759 17.2195H29.6759ZM16.8223 4.21948C23.9112 4.21948 29.6759 10.0298 29.6759 17.2195H31.6759C31.6759 8.94515 25.0356 2.21948 16.8223 2.21948V4.21948ZM3.96875 17.2195C3.96875 10.0298 9.73337 4.21948 16.8223 4.21948V2.21948C8.60903 2.21948 1.96875 8.94515 1.96875 17.2195H3.96875ZM16.8223 30.2195C9.73337 30.2195 3.96875 24.4091 3.96875 17.2195H1.96875C1.96875 25.4938 8.60903 32.2195 16.8223 32.2195V30.2195Z" fill="black" mask="url(#path-1-inside-1_597_2141)"/>
</svg>
