<svg width="19" height="19" viewBox="0 0 19 19" fill="none" xmlns="http://www.w3.org/2000/svg">
  <path fill-rule="evenodd" clip-rule="evenodd" d="M12.1472 0H0V19H12.1472H12.2944H12.4416C15.7553 19 18.4416 16.3137 18.4416 13V6C18.4416 2.68629 15.7553 0 12.4416 0H12.2944H12.1472Z" fill="#148e41"/>
  <mask id="path-1-inside-1_505_2063" fill="white">
    <path fill-rule="evenodd" clip-rule="evenodd" d="M12.1472 0H0V19H12.1472H12.2944H12.4416C15.7553 19 18.4416 16.3137 18.4416 13V6C18.4416 2.68629 15.7553 0 12.4416 0H12.2944H12.1472Z"/>
  </mask>
  <path d="M0 0V-1H-1V0H0ZM0 19H-1V20H0V19ZM0 1H12.1472V-1H0V1ZM1 19V0H-1V19H1ZM12.1472 18H0V20H12.1472V18ZM12.2944 18H12.1472V20H12.2944V18ZM12.4416 18H12.2944V20H12.4416V18ZM17.4416 13C17.4416 15.7614 15.203 18 12.4416 18V20C16.3076 20 19.4416 16.866 19.4416 13H17.4416ZM17.4416 6V13H19.4416V6H17.4416ZM12.4416 1C15.203 1 17.4416 3.23858 17.4416 6H19.4416C19.4416 2.13401 16.3076 -1 12.4416 -1V1ZM12.2944 1H12.4416V-1H12.2944V1ZM12.1472 1H12.2944V-1H12.1472V1Z" fill="black" mask="url(#path-1-inside-1_505_2063)"/>
</svg>