<svg width="55" height="64" viewBox="0 0 55 64" fill="none" xmlns="http://www.w3.org/2000/svg">
<g filter="url(#filter0_d_1042_2371)">
<rect y="0.219482" width="53" height="61" rx="19" fill="white"/>
<rect x="0.5" y="0.719482" width="52" height="60" rx="18.5" stroke="black"/>
</g>
<mask id="path-3-inside-1_1042_2371" fill="white">
<path fill-rule="evenodd" clip-rule="evenodd" d="M38.3369 35.3308C39.9399 32.7162 40.8652 29.6329 40.8652 26.3311C40.8652 16.8806 33.2842 9.21948 23.9326 9.21948C14.581 9.21948 7 16.8806 7 26.3311C7 35.7816 14.581 43.4427 23.9326 43.4427C27.6268 43.4427 31.0447 42.2472 33.8282 40.2181L40.9418 47.4069C42.232 48.7108 44.324 48.7108 45.6142 47.4069C46.9045 46.103 46.9045 43.9889 45.6142 42.685L38.3369 35.3308ZM23.8223 40.2195C31.4734 40.2195 37.6759 33.9515 37.6759 26.2195C37.6759 18.4875 31.4734 12.2195 23.8223 12.2195C16.1712 12.2195 9.96875 18.4875 9.96875 26.2195C9.96875 33.9515 16.1712 40.2195 23.8223 40.2195Z"/>
</mask>
<path fill-rule="evenodd" clip-rule="evenodd" d="M38.3369 35.3308C39.9399 32.7162 40.8652 29.6329 40.8652 26.3311C40.8652 16.8806 33.2842 9.21948 23.9326 9.21948C14.581 9.21948 7 16.8806 7 26.3311C7 35.7816 14.581 43.4427 23.9326 43.4427C27.6268 43.4427 31.0447 42.2472 33.8282 40.2181L40.9418 47.4069C42.232 48.7108 44.324 48.7108 45.6142 47.4069C46.9045 46.103 46.9045 43.9889 45.6142 42.685L38.3369 35.3308ZM23.8223 40.2195C31.4734 40.2195 37.6759 33.9515 37.6759 26.2195C37.6759 18.4875 31.4734 12.2195 23.8223 12.2195C16.1712 12.2195 9.96875 18.4875 9.96875 26.2195C9.96875 33.9515 16.1712 40.2195 23.8223 40.2195Z" fill="black"/>
<path d="M38.3369 35.3308L37.4844 34.8081L37.0745 35.4767L37.6261 36.0342L38.3369 35.3308ZM33.8282 40.2181L34.539 39.5147L33.934 38.9033L33.2391 39.41L33.8282 40.2181ZM40.9418 47.4069L41.6526 46.7035L41.6526 46.7035L40.9418 47.4069ZM45.6142 47.4069L46.325 48.1102L46.325 48.1102L45.6142 47.4069ZM45.6142 42.685L44.9034 43.3884L44.9034 43.3884L45.6142 42.685ZM39.8652 26.3311C39.8652 29.4437 38.9934 32.3468 37.4844 34.8081L39.1894 35.8535C40.8863 33.0857 41.8652 29.8221 41.8652 26.3311H39.8652ZM23.9326 10.2195C32.7221 10.2195 39.8652 17.423 39.8652 26.3311H41.8652C41.8652 16.3383 33.8464 8.21948 23.9326 8.21948V10.2195ZM8 26.3311C8 17.423 15.1432 10.2195 23.9326 10.2195V8.21948C14.0188 8.21948 6 16.3383 6 26.3311H8ZM23.9326 42.4427C15.1432 42.4427 8 35.2392 8 26.3311H6C6 36.3239 14.0188 44.4427 23.9326 44.4427V42.4427ZM33.2391 39.41C30.6204 41.319 27.4073 42.4427 23.9326 42.4427V44.4427C27.8463 44.4427 31.4691 43.1753 34.4172 41.0261L33.2391 39.41ZM41.6526 46.7035L34.539 39.5147L33.1173 40.9214L40.231 48.1102L41.6526 46.7035ZM44.9034 46.7035C44.0045 47.6119 42.5515 47.6119 41.6526 46.7035L40.2309 48.1102C41.9126 49.8096 44.6434 49.8096 46.325 48.1102L44.9034 46.7035ZM44.9034 43.3884C45.8081 44.3026 45.8081 45.7892 44.9034 46.7035L46.325 48.1102C48.0009 46.4167 48.0009 43.6752 46.325 41.9816L44.9034 43.3884ZM37.6261 36.0342L44.9034 43.3884L46.325 41.9816L39.0477 34.6274L37.6261 36.0342ZM36.6759 26.2195C36.6759 33.4091 30.9112 39.2195 23.8223 39.2195V41.2195C32.0356 41.2195 38.6759 34.4938 38.6759 26.2195H36.6759ZM23.8223 13.2195C30.9112 13.2195 36.6759 19.0298 36.6759 26.2195H38.6759C38.6759 17.9452 32.0356 11.2195 23.8223 11.2195V13.2195ZM10.9688 26.2195C10.9688 19.0298 16.7334 13.2195 23.8223 13.2195V11.2195C15.609 11.2195 8.96875 17.9452 8.96875 26.2195H10.9688ZM23.8223 39.2195C16.7334 39.2195 10.9688 33.4091 10.9688 26.2195H8.96875C8.96875 34.4938 15.609 41.2195 23.8223 41.2195V39.2195Z" fill="black" mask="url(#path-3-inside-1_1042_2371)"/>
<defs>
<filter id="filter0_d_1042_2371" x="0" y="0.219482" width="55" height="63" filterUnits="userSpaceOnUse" color-interpolation-filters="sRGB">
<feFlood flood-opacity="0" result="BackgroundImageFix"/>
<feColorMatrix in="SourceAlpha" type="matrix" values="0 0 0 0 0 0 0 0 0 0 0 0 0 0 0 0 0 0 127 0" result="hardAlpha"/>
<feOffset dx="2" dy="2"/>
<feComposite in2="hardAlpha" operator="out"/>
<feColorMatrix type="matrix" values="0 0 0 0 0 0 0 0 0 0 0 0 0 0 0 0 0 0 1 0"/>
<feBlend mode="normal" in2="BackgroundImageFix" result="effect1_dropShadow_1042_2371"/>
<feBlend mode="normal" in="SourceGraphic" in2="effect1_dropShadow_1042_2371" result="shape"/>
</filter>
</defs>
</svg>
