<svg width="55" height="63" viewBox="0 0 55 63" fill="none" xmlns="http://www.w3.org/2000/svg">
<rect x="2.5" y="2.5" width="52" height="60" rx="18.5" fill="black" stroke="black"/>
<rect x="0.5" y="0.5" width="52" height="60" rx="18.5" fill="white" stroke="black"/>
<mask id="path-3-inside-1_1043_2535" fill="white">
<path fill-rule="evenodd" clip-rule="evenodd" d="M38.3369 35.1113C39.9399 32.4968 40.8652 29.4134 40.8652 26.1116C40.8652 16.6611 33.2842 9 23.9326 9C14.581 9 7 16.6611 7 26.1116C7 35.5621 14.581 43.2232 23.9326 43.2232C27.6268 43.2232 31.0447 42.0277 33.8282 39.9986L40.9418 47.1874C42.232 48.4913 44.324 48.4913 45.6142 47.1874C46.9045 45.8835 46.9045 43.7694 45.6142 42.4655L38.3369 35.1113ZM23.8223 40C31.4734 40 37.6759 33.732 37.6759 26C37.6759 18.268 31.4734 12 23.8223 12C16.1712 12 9.96875 18.268 9.96875 26C9.96875 33.732 16.1712 40 23.8223 40Z"/>
</mask>
<path fill-rule="evenodd" clip-rule="evenodd" d="M38.3369 35.1113C39.9399 32.4968 40.8652 29.4134 40.8652 26.1116C40.8652 16.6611 33.2842 9 23.9326 9C14.581 9 7 16.6611 7 26.1116C7 35.5621 14.581 43.2232 23.9326 43.2232C27.6268 43.2232 31.0447 42.0277 33.8282 39.9986L40.9418 47.1874C42.232 48.4913 44.324 48.4913 45.6142 47.1874C46.9045 45.8835 46.9045 43.7694 45.6142 42.4655L38.3369 35.1113ZM23.8223 40C31.4734 40 37.6759 33.732 37.6759 26C37.6759 18.268 31.4734 12 23.8223 12C16.1712 12 9.96875 18.268 9.96875 26C9.96875 33.732 16.1712 40 23.8223 40Z" fill="black"/>
<path d="M38.3369 35.1113L37.4844 34.5886L37.0745 35.2572L37.6261 35.8147L38.3369 35.1113ZM33.8282 39.9986L34.539 39.2952L33.934 38.6839L33.2391 39.1905L33.8282 39.9986ZM40.9418 47.1874L41.6526 46.484L41.6526 46.484L40.9418 47.1874ZM45.6142 47.1874L46.325 47.8908L46.325 47.8908L45.6142 47.1874ZM45.6142 42.4655L44.9034 43.1689L44.9034 43.1689L45.6142 42.4655ZM39.8652 26.1116C39.8652 29.2242 38.9934 32.1273 37.4844 34.5886L39.1894 35.634C40.8863 32.8662 41.8652 29.6026 41.8652 26.1116H39.8652ZM23.9326 10C32.7221 10 39.8652 17.2035 39.8652 26.1116H41.8652C41.8652 16.1188 33.8464 8 23.9326 8V10ZM8 26.1116C8 17.2035 15.1432 10 23.9326 10V8C14.0188 8 6 16.1188 6 26.1116H8ZM23.9326 42.2232C15.1432 42.2232 8 35.0197 8 26.1116H6C6 36.1044 14.0188 44.2232 23.9326 44.2232V42.2232ZM33.2391 39.1905C30.6204 41.0995 27.4073 42.2232 23.9326 42.2232V44.2232C27.8463 44.2232 31.4691 42.9558 34.4172 40.8066L33.2391 39.1905ZM41.6526 46.484L34.539 39.2952L33.1173 40.702L40.231 47.8908L41.6526 46.484ZM44.9034 46.484C44.0045 47.3924 42.5515 47.3924 41.6526 46.484L40.2309 47.8908C41.9126 49.5902 44.6434 49.5902 46.325 47.8908L44.9034 46.484ZM44.9034 43.1689C45.8081 44.0832 45.8081 45.5698 44.9034 46.484L46.325 47.8908C48.0009 46.1972 48.0009 43.4557 46.325 41.7622L44.9034 43.1689ZM37.6261 35.8147L44.9034 43.1689L46.325 41.7622L39.0477 34.4079L37.6261 35.8147ZM36.6759 26C36.6759 33.1896 30.9112 39 23.8223 39V41C32.0356 41 38.6759 34.2743 38.6759 26H36.6759ZM23.8223 13C30.9112 13 36.6759 18.8104 36.6759 26H38.6759C38.6759 17.7257 32.0356 11 23.8223 11V13ZM10.9688 26C10.9688 18.8104 16.7334 13 23.8223 13V11C15.609 11 8.96875 17.7257 8.96875 26H10.9688ZM23.8223 39C16.7334 39 10.9688 33.1896 10.9688 26H8.96875C8.96875 34.2743 15.609 41 23.8223 41V39Z" fill="black" mask="url(#path-3-inside-1_1043_2535)"/>
</svg>
